<?xml version="1.0" encoding="utf-8"?>
<!DOCTYPE svg PUBLIC "-//W3C//DTD SVG 20010904//EN" "http://www.w3.org/TR/2001/REC-SVG-20010904/DTD/svg10.dtd">
<svg version="1.0" xmlns="http://www.w3.org/2000/svg" width="326px" height="332px" viewBox="0 0 326 332" preserveAspectRatio="xMidYMid meet">
 <g fill="#000000">
  <path d="M4 329.2 c0 -1.6 -0.7 -3.7 -1.5 -4.8 -1.7 -2.2 -1.9 -6.7 -0.5 -9.5 0.9 -1.5 0.7 -1.9 -0.5 -1.9 -1.4 0 -1.5 -3.7 -1.3 -32.7 l0.3 -32.7 2.5 -0.7 2.5 -0.7 -2.7 -0.1 c-2.6 -0.1 -2.8 -0.4 -2.8 -4.6 l0 -4.4 8.2 -0.3 c5.4 -0.2 8.3 -0.7 8.6 -1.5 0.2 -0.8 -0.5 -1.3 -1.7 -1.3 -1.8 0 -2.1 -0.6 -2.1 -4 0 -3.9 0.1 -4 3.5 -4 2.8 0 3.5 0.4 3.5 2 0 2.3 1 2.4 23 2.1 12 -0.2 14.8 0.1 25 2.7 14.3 3.7 21.7 3.3 23.8 -1.3 0.9 -1.8 1.9 -2.5 4.1 -2.5 2.3 0 3 -0.5 3.4 -2.8 1 -4.7 4.4 -8.2 8.2 -8.2 l3.4 0 -2 -4.4 c-2.6 -6 -11.9 -43 -11.9 -47.5 0 -2.1 -0.5 -4.2 -1.1 -4.8 -0.6 -0.6 -1.3 -9.6 -1.6 -23.2 l-0.6 -22.1 2.1 0 c2.5 0 2.6 -0.5 1.1 -10.2 -1.5 -9.8 -3.3 -14.4 -7.4 -18.9 -3.2 -3.6 -3.5 -4.5 -3.5 -9.9 0 -4.4 0.4 -6 1.4 -6 1.4 0 2.6 -4.2 2.6 -9.2 0 -1.6 1.3 -5.4 2.9 -8.6 2.3 -4.6 3.1 -7.7 3.6 -15.1 0.7 -8.1 1.2 -10 3.7 -13.8 1.6 -2.3 3.5 -4.3 4.1 -4.3 0.7 0 1.8 -0.9 2.5 -2 0.8 -1.4 2.3 -2 4.7 -2 3.2 0 3.5 -0.3 3.5 -2.8 0 -4.4 4.1 -5.6 16.8 -4.7 5.9 0.3 10.9 1 11.2 1.4 0.3 0.5 3.4 1.1 7 1.4 29.3 2.8 40.5 5.2 51.6 11.5 7.4 4 8.5 5.1 14.4 12.7 3 3.9 7.2 9 9.3 11.5 7.9 9.1 10.8 18.4 12.2 38.5 0.7 9.8 0.6 10.3 -3.4 23.2 -4.6 14.7 -4.8 16.5 -2.5 18.4 1.4 1.2 1.6 2.8 1 11.4 -0.7 9.5 -3.5 26.2 -5.7 33.2 -0.6 1.7 -2.6 4.3 -4.5 5.8 -1.8 1.4 -3.4 3.4 -3.4 4.5 0 2.3 -5.9 19.2 -10.3 29.6 -3.9 9 -3.6 10.4 1.9 10.4 2.2 0 4.8 1.2 8.1 3.7 2.6 2 5 4 5.1 4.5 0.2 0.4 1.2 0.8 2.2 0.8 1.1 0 2.5 1.2 3.2 2.8 1.2 2.4 1.8 2.7 5.8 2.4 2.5 -0.2 5.7 0.1 7.3 0.7 2.4 1 2.7 1.5 2.7 6.1 0 2.7 0.2 5 0.5 5 0.4 0 1.9 -0.7 3.6 -1.6 1.9 -0.9 4.9 -1.4 8.2 -1.2 5.1 0.3 5.2 0.4 5.5 3.6 0.3 2.8 -0.3 3.9 -4 7.3 l-4.3 4 5.2 -0.5 c2.9 -0.3 6.5 -1.1 8 -1.9 l2.7 -1.5 -3.2 -0.7 c-2.8 -0.6 -3.2 -1 -3.2 -4.1 0 -3 0.3 -3.4 2.5 -3.4 1.8 0 2.5 -0.5 2.5 -2 0 -1.6 0.7 -2 3.3 -2 4.8 0 7.7 2.4 7.7 6.6 0 3 -0.3 3.4 -2.5 3.4 -1.4 0 -2.5 0.5 -2.5 1 0 0.6 0.9 1 2 1 1.6 0 2 0.7 2 3 0 2.7 0.3 3 3 3 1.7 0 3 -0.4 3 -0.9 0 -1.5 9 -4.1 14.1 -4.1 7.6 0 9.9 1.3 9.9 5.6 0 2.2 -0.6 4.1 -1.6 4.8 -1 0.8 -1.6 3.1 -1.8 7.3 l-0.2 6.1 4.3 -3.5 c4 -3.3 4.2 -3.7 2.8 -5.3 -0.8 -0.9 -1.5 -3.1 -1.5 -4.8 0 -2.9 0.3 -3.2 3 -3.2 1.7 0 3 -0.5 3 -1.1 0 -0.6 1.6 -0.9 3.8 -0.7 3.5 0.3 3.7 0.5 4 4.1 0.2 2 -0.1 3.7 -0.6 3.7 -1.9 0 -2 3.9 -0.1 5.6 1.8 1.6 1.9 3.5 1.9 29.1 l0 27.3 -31.4 0 -31.5 0 -0.4 -2.7 -0.4 -2.8 -0.2 2.8 c-0.1 2.5 -0.4 2.7 -4.1 2.7 l-4 0 0.1 -5.2 c0.1 -2.9 -0.2 -7.3 -0.7 -9.8 -0.8 -4.3 -0.8 -4.3 -1.4 -1.5 -0.5 2.8 -0.9 3 -5.3 3.3 -3.7 0.2 -4.7 0 -4.7 -1.2 0 -1.2 -1 -1.6 -3.5 -1.6 l-3.5 0 0 -6.5 c0 -5.5 -0.3 -6.5 -1.8 -6.5 -1.5 0 -1.7 0.9 -1.7 6.3 l0 6.2 -3.5 0.3 c-4.2 0.4 -6 -1.6 -6 -6.9 0 -4.9 0.8 -6.9 3 -6.9 1.3 0 1.6 -0.6 1.2 -2.5 -0.3 -2 -1 -2.5 -3.3 -2.5 -1.6 0 -2.9 -0.4 -2.9 -1 0 -0.5 -0.7 -0.7 -1.5 -0.4 -1 0.4 -1.5 2 -1.5 4.8 0 5.5 -2.2 8.6 -6.2 8.6 -3.8 0 -5.7 -2.4 -5.8 -7.2 0 -2.7 -0.4 -3.8 -1.5 -3.8 -1.1 0 -1.5 -1.1 -1.6 -3.7 l0 -3.8 -1.6 4 c-2 5.2 -5.1 17.8 -7.1 28.8 l-1.6 8.7 -4.9 0 -4.9 0 0.5 -5.2 c0.2 -2.9 1.2 -8.4 2.1 -12.3 0.9 -3.8 1.6 -9.3 1.6 -12.2 0 -2.8 0.4 -5.4 0.9 -5.7 0.5 -0.3 1.2 -2.3 1.6 -4.3 0.3 -2.1 1.2 -4.7 1.9 -5.8 0.7 -1.1 2 -4.2 2.9 -6.8 l1.6 -4.8 -4.6 2.5 c-2.5 1.4 -5.4 2.6 -6.4 2.6 -1.2 0 -1.9 0.7 -1.9 1.9 0 1.1 -0.8 2.2 -1.7 2.4 -1 0.3 -0.1 0.5 2 0.6 3.6 0.1 3.7 0.2 3.7 3.9 -0.1 2.4 -1 5.1 -2.8 7.7 -2.5 3.6 -3.3 4 -7.5 4.3 -4.7 0.3 -4.7 0.3 -4.7 -2.8 0 -3.7 1.3 -6.5 4.9 -10.4 l2.6 -2.9 -6.4 0.7 c-3.5 0.3 -8.7 0.6 -11.5 0.7 -4.6 0.1 -4.8 0.2 -2.3 1.1 1.9 0.7 2.7 1.7 2.7 3.4 0 2 0.5 2.4 3 2.4 2.6 0 3 0.3 3 2.9 0 4.2 -1 6.1 -3.1 6.1 -1.3 0 -1.9 0.7 -1.9 2.5 0 3.3 -2 7.5 -3.7 7.5 -0.7 0 -1.3 0.9 -1.3 2 0 3.2 -6.9 8.9 -10.7 9 -3.1 0 -3.3 -0.2 -3.3 -3.7 0 -2.1 0.7 -5 1.4 -6.5 2.3 -4.4 -0.7 -3.6 -4.5 1.2 -3.9 4.8 -9.8 9 -12.6 9 -1.2 0 -3.4 1 -5 2.3 -1.5 1.2 -4 2.8 -5.5 3.5 -1.6 0.6 -2.8 1.6 -2.8 2.2 0 0.6 -9 1 -26 1 l-26 0 0 -3.6 c0 -4.3 -2.3 -4.3 -2.8 0 -0.3 2.8 -0.5 2.8 -5.3 2.4 -2.7 -0.3 -5.2 -0.1 -5.5 0.3 -0.6 1 -5.5 1.2 -7.8 0.3 -1.1 -0.4 -1.6 -2 -1.7 -4.8 l-0.1 -4.1 -1 4.8 -1 4.7 -5.4 0 c-5.1 0 -5.4 -0.1 -5.4 -2.5 0 -2.2 -0.4 -2.5 -3.5 -2.5 -1.9 0 -3.5 -0.4 -3.5 -1 0 -0.5 -1.1 -1 -2.5 -1 -2.2 0 -2.5 0.4 -2.5 3.5 l0 3.5 -5 0 c-4.8 0 -5 -0.1 -5 -2.8z m24.5 -7.2 c0.9 -1.6 1.3 -3 1.1 -3 -0.3 0 -1.2 1.4 -2.1 3 -0.9 1.7 -1.3 3 -1.1 3 0.3 0 1.2 -1.3 2.1 -3z m236.3 -6 c0 -2.2 -0.1 -2.2 -0.8 0.5 -0.4 1.7 -0.8 3.9 -0.8 5 0 1.6 0.2 1.5 0.8 -0.5 0.4 -1.4 0.8 -3.6 0.8 -5z m-187.5 -4.7 c0.9 -0.2 1.7 -1.1 1.7 -2 0 -1.3 -0.3 -1.3 -1.5 -0.3 -1 0.8 -3.3 1.1 -6.5 0.8 -4.4 -0.5 -5 -0.3 -5 1.4 0 1.7 0.5 1.9 4.8 1.3 2.6 -0.4 5.5 -0.9 6.5 -1.2z m-39.3 -10.5 c0 -2.7 0.4 -3.8 1.5 -3.8 1 0 1.5 -1 1.5 -2.8 0 -1.8 1.1 -3.8 3 -5.7 3.7 -3.5 3.8 -5.5 0.5 -5.5 -1.5 0 -2.5 0.6 -2.5 1.4 0 0.7 -0.6 1.9 -1.3 2.5 -1.3 1 -4.1 8.7 -5.2 14.4 -0.3 1.5 -1.1 2.7 -1.7 2.7 -0.6 0 -1.9 0.7 -2.9 1.6 -1.6 1.5 -1.6 1.7 -0.1 3.4 1.6 1.7 1.8 1.6 4.4 -1.4 1.9 -2.2 2.8 -4.2 2.8 -6.8z m-15.8 3.8 c-0.3 -3.7 -0.8 -4.6 -2.3 -4.6 -2.3 0 -2.5 2.5 -0.4 4.6 0.8 0.9 1.5 2.4 1.5 3.5 0 1.1 0.3 1.8 0.8 1.5 0.4 -0.2 0.6 -2.5 0.4 -5z m65.8 -4 c0 -1.9 0 -1.9 -1.4 -0.1 -0.8 1.1 -1.1 2.5 -0.8 3.3 0.4 1.1 0.6 1.1 1.3 0 0.5 -0.7 0.9 -2.2 0.9 -3.2z m54.7 -1.6 c1.3 0 2.3 -0.5 2.3 -1.1 0 -0.6 -0.7 -0.8 -1.6 -0.5 -0.9 0.3 -2.2 0.6 -2.9 0.6 -0.7 0 -1.6 0.8 -2 1.8 -0.5 1.4 -0.4 1.5 0.6 0.5 0.7 -0.7 2.3 -1.3 3.6 -1.3z m14.3 -0.4 c0 -0.9 -1.1 -1 -4.5 -0.2 -2.9 0.7 -3.9 1.3 -2.9 1.6 2.5 0.9 7.4 -0.1 7.4 -1.4z m-136 -17.8 c0 -2.6 0.5 -4.8 1.2 -5 0.6 -0.2 0.9 -1.1 0.6 -1.8 -0.9 -2.7 -3.5 4.3 -4.2 11 -0.5 6.2 -0.5 6.4 0.9 3.5 0.8 -1.6 1.4 -5.1 1.5 -7.7z m121.7 6.3 c3.1 -0.6 6.7 -1.1 8 -1.1 1.3 0 2.3 -0.4 2.3 -1 0 -0.5 -0.6 -1 -1.4 -1 -0.7 0 -2.8 -0.3 -4.5 -0.6 -2.4 -0.5 -3.1 -0.3 -3.1 1 0 1.2 -1 1.6 -4 1.6 -3.7 0 -4 0.2 -3.9 2.8 0.1 1.5 0.3 2 0.6 1.1 0.2 -1.1 2.3 -2 6 -2.8z m64 0.9 c2 0 2.3 -0.5 2.3 -3.5 0 -2 0.5 -3.5 1.1 -3.5 1.4 0 7.9 -6.5 7.9 -7.8 0 -0.6 -1.8 -1.2 -4 -1.4 l-4 -0.4 -3.4 7.1 c-4.1 8.7 -5.4 12.6 -3.5 10.8 0.7 -0.7 2.3 -1.3 3.6 -1.3z m60.3 -4.4 c0 -0.2 -1.3 -0.6 -3 -0.8 -1.6 -0.3 -3 -0.1 -3 0.4 0 0.4 1.4 0.8 3 0.8 1.7 0 3 -0.2 3 -0.4z m36.5 -0.6 c0.4 -0.6 -0.6 -1 -2.2 -0.9 -2.5 0 -2.6 0.1 -0.8 0.9 1.1 0.5 2.1 0.9 2.2 0.9 0.1 0.1 0.5 -0.3 0.8 -0.9z m-52.5 -6.6 c0 -1.5 1.2 -3.8 2.9 -5.5 l2.9 -2.9 -3.3 0 c-2.9 0 -3.6 0.5 -5.9 5 -1.4 2.7 -2.6 5.2 -2.6 5.5 0 0.3 1.4 0.5 3 0.5 2.6 0 3 -0.4 3 -2.6z m20.9 -4.6 c1.2 -1.7 1 -1.8 -3.5 -1.7 -3.1 0.1 -3.8 0.4 -2.1 0.6 1.6 0.3 3.1 1.1 3.4 1.9 0.3 0.8 0.6 1.4 0.7 1.2 0.1 -0.2 0.8 -1.1 1.5 -2z m-105.4 -2.2 c3.3 -0.7 8 -2.2 10.5 -3.3 5.4 -2.4 17 -11 17 -12.6 0 -0.8 -0.4 -0.7 -1.2 0.1 -0.7 0.7 -2.9 1.2 -5 1.2 -3.7 0 -3.8 -0.1 -3.8 -3.5 0 -1.9 0.5 -3.5 1 -3.5 0.6 0 1 -0.7 1 -1.6 0 -2 1.7 -3.7 5.5 -5.3 1.7 -0.8 3.8 -2.9 4.8 -4.8 2.2 -4.3 2.2 -6.4 -0.1 -3.7 -3.7 4.6 -31.7 21 -44.2 25.9 -6.8 2.7 -8.6 3 -18.7 3 -10.6 -0.1 -11.1 0 -9.6 1.7 5.2 5.8 29.1 9.4 42.8 6.4z m-48.2 -19.8 c-2.1 -2.4 -4.2 -8.6 -4.4 -13.3 -0.1 -3.8 -0.2 -3.8 -1.1 1.5 -1.1 6.8 -0.5 10.1 2.9 15.9 l2.7 4.6 0.7 -3.5 c0.6 -2.5 0.3 -4 -0.8 -5.2z m26.6 -1.2 c2.8 -1.6 2.1 -2.1 -3.9 -3.1 -2.5 -0.3 -5.3 -0.9 -6.2 -1.1 -1.3 -0.4 -1.6 -0.1 -1.3 1 0.3 0.9 0.7 2.3 1 3.1 0.6 1.9 7 2 10.4 0.1z m-109.7 -2.1 c1.7 -1.4 4.2 -2.5 5.9 -2.5 1.6 0 2.9 -0.5 2.9 -1.2 0 -0.6 0.8 -2 1.8 -3.1 1.7 -2 1.6 -2 -5.3 -1.4 -3.8 0.4 -8.2 0.7 -9.7 0.7 -1.7 0 -2.8 0.5 -2.8 1.3 0 0.7 -1.6 2.1 -3.5 3 -4.9 2.3 -4.6 4.5 0.8 5 2.3 0.2 4.8 0.4 5.6 0.5 0.7 0.1 2.6 -0.9 4.3 -2.3z m168.7 -2.2 c0.2 -0.2 -0.4 -0.3 -1.5 -0.3 -1.1 0 -2.4 1.2 -3.1 2.7 l-1.3 2.6 2.8 -2.4 c1.5 -1.3 2.9 -2.5 3.1 -2.6z m-190.9 1.7 c0 -0.5 -1.2 -1 -2.7 -0.9 l-2.8 0.1 2.5 0.8 c1.4 0.4 2.6 0.8 2.8 0.9 0.1 0.1 0.2 -0.3 0.2 -0.9z m145.9 -10.4 c0.6 -0.7 0.8 -2.6 0.5 -4.4 -0.4 -1.7 -0.3 -4.3 0 -5.7 0.5 -2.1 1.2 -2.5 4.5 -2.5 3.4 0 4 0.3 4.6 2.7 0.6 2.4 0.8 2.6 1.6 1 0.6 -0.9 2.1 -1.7 3.4 -1.7 2 0 2.5 -0.6 3 -3.7 1.1 -6.9 1.5 -8.2 2.8 -9.5 1.1 -0.9 1.1 -1.9 0.3 -4 -1.1 -2.9 -2.6 -3.8 -2.6 -1.4 0 0.7 -0.7 1.9 -1.5 2.6 -0.9 0.7 -1.5 2.9 -1.5 5.2 0 3.5 -0.3 4 -3.5 5.4 -2 0.8 -7.7 1.7 -12.8 2.1 l-9.2 0.6 0.5 6.6 c0.5 6.4 0.6 6.6 3.5 7.2 4.7 1 5.2 1 6.4 -0.5z m-19.7 -20.1 c-0.3 -4.5 -0.1 -6.5 0.7 -6.5 0.7 0 0.3 -1 -0.9 -2.2 -1.1 -1.2 -2 -2.7 -2 -3.3 0 -0.7 -3.4 -1.8 -7.7 -2.6 l-7.8 -1.5 -0.3 -4.8 c-0.4 -6.4 1.6 -9.4 6.8 -10.2 3.9 -0.6 4 -0.8 4 -4.7 0 -3.6 3.5 -15 6 -19.8 0.6 -1.1 2.1 -1.9 3.5 -1.9 2.2 0 2.5 -0.4 2.4 -3.7 0 -2.1 -0.4 -4.7 -0.9 -5.8 -0.8 -1.9 -0.9 -1.9 -0.9 0.2 -0.2 4.6 -12.2 7.2 -17.4 3.9 -1.2 -0.8 -3.8 -1.8 -5.8 -2.1 -3.7 -0.7 -3.7 -0.7 -4.4 3.4 -0.5 3.2 -1.1 4.1 -2.7 4.1 -1.8 0 -2 0.4 -1.3 3.3 0.5 1.7 0.9 6.4 1 10.3 0.2 5.9 1.1 9.5 5.3 20 2.7 7.1 5.2 13.7 5.5 14.7 0.5 1.2 1.7 1.7 4.7 1.7 l4 0 0 6.4 0 6.5 3.8 0.4 c2 0.2 3.9 0.4 4.2 0.5 0.3 0.1 0.4 -2.7 0.2 -6.3z m51.7 -9.9 c1.5 -3.4 2.7 -4.6 5 -5.1 2.1 -0.4 3.1 -1.4 3.5 -3.3 0.6 -2.4 4.7 -11.4 11.2 -24.3 3.6 -7.1 5.4 -15.5 5.3 -24.9 0 -4.7 -0.3 -7.9 -0.6 -7.2 -0.2 0.6 -1.6 1.2 -2.9 1.2 -2.1 0 -2.4 0.5 -2.4 3.5 0 3.2 -0.6 3.8 -6.7 7.9 -5.9 3.8 -7.8 4.5 -14 5.1 -6.2 0.7 -7.8 0.5 -11.7 -1.4 -3.9 -2 -4.5 -2.7 -4.9 -5.9 -0.3 -2.7 -0.4 -2.2 -0.5 2 -0.2 6.7 0.4 8.8 2.7 8.8 2.1 0 4.1 5.2 4.1 10.3 0 3.3 -0.3 3.7 -2.7 3.8 l-2.8 0.2 2.8 0.4 c2.3 0.4 2.7 0.9 2.7 3.7 0 1.9 -0.7 3.9 -1.6 4.7 -1.4 1.2 -1.4 1.4 0.2 2.6 1 0.7 3.4 1.3 5.4 1.3 6.9 0 7.9 3.2 5.4 17.3 -0.8 4.9 -0.1 4.7 2.5 -0.7z m-34.9 1.4 c0 -1.1 -0.4 -2 -0.9 -2 -0.5 0 -1.6 -0.3 -2.5 -0.6 -1.2 -0.5 -1.6 0 -1.6 2 0 2.1 0.5 2.6 2.5 2.6 1.8 0 2.5 -0.5 2.5 -2z m3 -25.8 c0 -2.6 2 -4.2 5.5 -4.3 2.2 -0.1 2.4 -0.3 0.8 -0.6 -1.2 -0.2 -2.9 -1.6 -3.9 -3 -1.5 -2.3 -1.6 -4.3 -1 -15.2 0.9 -16 1.9 -21.1 4.5 -23.2 1.5 -1.2 2.1 -2.9 2.1 -5.6 0 -2.1 0.7 -4.9 1.6 -6.2 1.5 -2 2.2 -2.2 7.3 -1.8 3.1 0.3 9.3 0.7 13.7 1 8 0.4 8.1 0.4 6.3 -1.4 -2.4 -2.4 -2.6 -9.4 -0.3 -10.3 0.9 -0.3 4 -0.6 6.9 -0.6 4.4 0 5.7 0.4 6.9 2.2 0.9 1.2 1.6 1.9 1.6 1.4 0 -0.4 -0.9 -2.1 -2.1 -3.7 -1.6 -2.3 -2.8 -2.9 -5.8 -2.9 -2 0 -4.1 -0.4 -4.6 -0.8 -0.6 -0.5 -2.8 -1.4 -5 -2 -2.3 -0.7 -6.4 -3.4 -9.5 -6.2 -4.9 -4.5 -6 -5 -10.1 -5 -2.6 0 -7.7 -1.1 -11.3 -2.5 -5 -1.9 -8.6 -2.5 -14.4 -2.5 -4.2 0 -9.4 -0.3 -11.4 -0.6 -3.5 -0.6 -3.8 -0.9 -3.8 -3.9 0 -3.7 -1 -3.4 19.3 -5.1 5.4 -0.4 7.7 -1 7.7 -2 0 -0.8 -1.8 -1.5 -4.7 -1.9 -11.1 -1.3 -15.3 -2.6 -17 -5.1 -1.1 -1.8 -1.9 -2.2 -2.6 -1.5 -0.6 0.6 -2.1 1.1 -3.3 1.1 -1.3 0 -2.9 0.7 -3.8 1.5 -0.8 0.8 -3 1.5 -4.9 1.5 -3.4 0 -3.5 0.1 -7.6 9.4 -3.5 8 -4.1 10.3 -4.1 16.2 0.1 6 0.2 6.7 1.4 5.2 0.8 -1.1 2.7 -1.8 4.9 -1.8 4.5 0 8 4.3 7.5 9.2 -0.2 2.6 -0.9 3.3 -3.8 4.3 l-3.5 1.2 4 0.6 c2.2 0.4 6 0.7 8.5 0.7 3 0 5.9 0.9 8.5 2.5 2.2 1.4 5.4 2.5 7 2.5 3.9 0 5.5 1.6 5.5 5.3 0 1.8 0.9 3.6 2.3 4.7 2.5 2.1 2.6 4.8 1.1 25.5 l-0.9 12 -3.5 0.3 c-3.4 0.3 -7 2.6 -7 4.4 0 0.4 1.6 0.8 3.5 0.8 3 0 3.8 0.6 6 4 2.6 4.2 5.5 5.3 5.5 2.2z m-51.9 -31.7 c1.5 -3.2 1.5 -3.6 -0.1 -5 -1.6 -1.4 -1.8 -1.4 -2.4 0 -0.8 2.3 -0.8 8.5 0.2 8.5 0.4 -0.1 1.4 -1.6 2.3 -3.5z m107.6 -22.2 c-0.3 -1 -1.1 -4 -1.8 -6.8 l-1.4 -5 -0.5 3.5 c-0.5 3.4 -0.6 3.5 -6 4.1 l-5.5 0.6 5.1 0.1 c4.1 0.2 5.7 0.7 7.5 2.7 2.9 2.9 3.2 3 2.6 0.8z m-103.5 -12.5 c-0.9 -0.9 -1.2 -0.7 -1.2 1.2 0 1.9 0.3 2.1 1.2 1.2 0.9 -0.9 0.9 -1.5 0 -2.4z m113.4 -24.2 c0.3 -2.9 -0.1 -8.4 -1 -12.7 -1.4 -7.5 -5.3 -17.5 -6.4 -16.4 -0.3 0.2 -0.4 2.7 -0.3 5.4 l0.1 5 -5.5 0.6 c-3.2 0.4 -7.4 0.3 -10 -0.4 -2.4 -0.6 -4.9 -1.1 -5.4 -1.1 -1.4 0 -1.4 6.7 -0.1 7.5 0.6 0.3 1.1 2.5 1.1 4.8 0.1 2.3 0.4 3.2 0.6 2 0.6 -3.1 6.8 -3.3 7.8 -0.3 0.3 1.1 1.3 2 2.1 2 0.8 0 1.4 1 1.4 2.3 0 1.5 1.6 3.6 4.8 6.2 2.6 2.1 5.4 4.7 6.2 5.7 1.4 1.6 1.6 1.5 2.8 -1.9 0.7 -2 1.5 -6 1.8 -8.7z m-36.6 -7.3 l0 -2.8 -8.9 0 c-7.3 0 -8.6 0.2 -6.8 1.1 1.2 0.7 4.5 1.5 7.2 1.9 2.8 0.3 5.7 1 6.5 1.6 2 1.2 2 1.2 2 -1.8z m-29.5 -26.1 c1.5 -1.1 1.3 -9.2 -0.2 -9.2 -0.7 0 -1.3 0.6 -1.3 1.3 0 0.8 -1.2 2 -2.7 2.8 -1.6 0.8 -4.3 2.4 -6.2 3.7 l-3.4 2.2 6.4 0 c3.5 0 6.9 -0.4 7.4 -0.8z m-31.9 -2.7 c1 -0.8 2.7 -1.5 3.7 -1.5 1.9 0 4.7 -2.2 4.7 -3.7 0 -1.1 6 -4.3 10.2 -5.4 2.1 -0.5 -0.3 -0.6 -6.5 -0.2 -9.4 0.5 -9.8 0.5 -10.4 -1.6 -0.6 -2.2 -2.3 -2.9 -2.3 -1 0 0.7 -1.5 1 -4 0.7 l-4 -0.4 0 4.4 0 4.4 -4 -0.4 c-4.4 -0.4 -4.8 0.2 -2.2 3.7 1.4 2.1 2.6 2.4 7.3 2.5 3.3 0 6.3 -0.6 7.5 -1.5z m77.4 -8 c-0.7 -0.8 -1.8 -1.5 -2.5 -1.5 -0.7 0 -1.5 0.7 -1.9 1.5 -0.4 1.1 0.2 1.5 2.6 1.5 2.6 0 2.9 -0.2 1.8 -1.5z"/>
  <path d="M202 78.5 c0 -3.3 0.2 -3.5 3.5 -3.5 3.3 0 3.5 0.2 3.5 3.5 0 3.3 -0.2 3.5 -3.5 3.5 -3.3 0 -3.5 -0.2 -3.5 -3.5z"/>
  <path d="M194 328.6 c0 -1.9 0.4 -3.7 0.9 -4 0.4 -0.3 1.1 -3.2 1.4 -6.4 0.9 -8.6 1.3 -9.2 5.8 -9.2 3.7 0 3.9 0.1 3.9 3.2 0 1.8 -0.5 6.9 -1.2 11.5 l-1.2 8.3 -4.8 0 -4.8 0 0 -3.4z"/>
  <path d="M211 328 c0 -3.9 0.1 -4 3.5 -4 3.4 0 3.5 0.1 3.5 4 0 3.9 -0.1 4 -3.5 4 -3.4 0 -3.5 -0.1 -3.5 -4z"/>
  <path d="M162.7 330.3 c-1 -1 -0.8 -5 0.4 -9.7 2.1 -7.6 2.9 -8.6 7.1 -8.6 l3.8 0 0 4.3 c0 2.4 -0.8 5.6 -2 7.5 -1.1 1.8 -2 4.1 -2 5.2 0 1.6 -0.7 2 -3.3 2 -1.9 0 -3.7 -0.3 -4 -0.7z"/>
  <path d="M0 232.7 c0 -4.4 1.5 -5.7 6.7 -5.7 l4.3 0 0 4.5 0 4.5 -5.5 0 -5.5 0 0 -3.3z"/>
  <path d="M38 225.6 c0 -3.1 0.3 -3.4 3.8 -4 2 -0.3 4.9 -0.6 6.5 -0.6 2.5 0 2.7 0.3 2.7 4 l0 4 -6.5 0 -6.5 0 0 -3.4z"/>
  <path d="M53 224.5 c0 -4.2 0.1 -4.4 3.8 -5.4 2 -0.6 5.2 -1.1 7 -1.1 l3.2 0 0 5.5 0 5.5 -7 0 -7 0 0 -4.5z"/>
  <path d="M69 223.1 l0 -6.1 3.9 0 c2.1 0 5.3 0.3 7 0.6 2.9 0.6 3.1 0.9 3.1 5 0 2.3 -0.4 4.5 -0.9 4.8 -0.5 0.4 -3.7 0.9 -7 1.2 l-6.1 0.7 0 -6.2z"/>
  <path d="M85 221 l0 -5 7 0 7 0 0 4.4 c0 4.1 -0.2 4.4 -3.1 5 -1.7 0.3 -4.9 0.6 -7 0.6 l-3.9 0 0 -5z"/>
 </g>
 <g fill="#ffffff">
  <path d="M0 313.6 l0 -18.4 3 -2.9 c3.2 -3 3.6 -4.6 2 -8.9 -1 -2.6 -1.1 -2.7 -2.4 -0.8 -0.8 1 -1.6 2.8 -1.9 3.9 -0.2 1.1 -0.5 -0.6 -0.6 -3.8 -0.1 -5.3 0.1 -5.8 1.8 -5.2 2 0.6 3.1 -1.6 3.1 -6.4 0 -2.3 -0.1 -2.3 -2.5 -0.7 -2.4 1.6 -2.5 1.6 -2.5 -0.7 0 -1.6 0.9 -2.8 2.5 -3.5 1.4 -0.6 2.5 -1.8 2.5 -2.7 0 -1.8 -0.5 -1.9 -3.1 -0.5 -1.6 0.9 -1.9 0.7 -1.9 -1.4 0 -1.9 0.8 -2.7 3.5 -3.6 1.9 -0.6 3.6 -2 4 -3.1 0.3 -1 0.7 -2.8 1 -3.8 0.5 -1.8 0.3 -1.9 -2.7 -1 -5.4 1.5 -5.8 1.3 -5.8 -3.3 l0 -4.3 6.3 -0.3 c3.4 -0.2 6.7 -0.8 7.2 -1.3 0.7 -0.7 -1.3 -1 -6.3 -0.7 l-7.2 0.3 0 -120.2 0 -120.3 163 0 163 0 0 142 0 142.1 -3.1 -3.6 c-1.7 -1.9 -4 -3.5 -5.2 -3.5 -1.3 0 -6.1 4.2 -13.3 11.6 -10.6 10.8 -13.5 14.7 -11.9 16.2 0.3 0.4 4.1 -0.6 8.3 -2.2 4.2 -1.5 9.3 -3.3 11.2 -3.9 1.9 -0.6 4.1 -1.7 4.8 -2.4 1.9 -1.8 8.6 0.7 9 3.5 0.3 2.3 -1.4 2.7 -7.6 2.2 -1.3 -0.1 -3 0.4 -3.9 1.1 -0.8 0.8 -2.7 1.2 -4.2 1.1 -1.4 -0.1 -5.1 0.7 -8.1 1.9 -3 1.1 -6.4 2.3 -7.4 2.6 -1.1 0.4 -2.8 1.5 -3.8 2.5 -2.5 2.5 -3.7 1.4 -1.3 -1.2 1 -1.1 1.5 -2.3 1.1 -2.8 -0.4 -0.4 -3.4 2.2 -6.6 5.8 -3.5 3.9 -5.4 6.8 -4.7 7.2 1.7 1 -1.1 6.4 -4.8 9.3 -3 2.3 -6.5 3.3 -6.5 2 0 -2.1 5.9 -11.4 11.2 -17.7 3.6 -4.1 8.5 -10.6 11.1 -14.4 2.5 -3.8 5.5 -7.8 6.6 -8.8 2.6 -2.4 2.7 -4.6 0.2 -3.9 -1 0.3 -3.1 -0.3 -4.6 -1.3 -2.7 -1.8 -2.8 -1.8 -5.2 1.1 -1.4 1.7 -3.4 5 -4.6 7.5 -1.2 2.5 -2.3 4.9 -2.5 5.4 -0.3 0.5 1.3 -0.9 3.5 -3.1 3.6 -3.6 9.3 -6.2 9.3 -4.3 0 1.1 -3.3 3.7 -5.7 4.4 -2.2 0.7 -3.9 3.8 -2.9 5.5 0.3 0.5 -0.1 1.4 -0.9 2.1 -0.8 0.7 -3.6 4.5 -6.2 8.4 -5.6 8.3 -6.3 7.4 -3.4 -4.4 2.5 -10 9.1 -24.1 15.5 -33.2 4.2 -5.9 5.2 -6.8 7.9 -6.8 3.4 -0.1 9.3 -4.3 8.2 -6 -1.2 -1.9 -7.4 -2.2 -12.4 -0.5 -4.9 1.6 -5.1 1.8 -5.1 5.2 0 2.3 -1.3 6.1 -3.5 9.9 -1.9 3.5 -5.3 10.8 -7.5 16.1 -5.7 13.6 -6.2 14.6 -5.4 10.3 0.3 -1.9 0.8 -5 1 -6.8 0.7 -5.1 3.3 -12.1 6.9 -18.7 3.6 -6.5 5.3 -12.5 3.6 -12.5 -0.6 0 -2.9 2.5 -5.2 5.5 -5.3 7 -8.9 18.1 -8.9 27.5 0 4.8 -0.5 7.3 -1.5 8.4 -1.7 1.7 -2 3 -0.5 2.1 1.4 -0.9 1.3 9.1 -0.2 17 -1.3 6.5 -1.3 6.5 -4.7 6.5 l-3.4 0 0.8 -7.2 c0.3 -4 1.7 -12.2 2.9 -18.3 2.1 -10.5 2.4 -19.5 0.5 -19.5 -0.7 0 -1.4 1.9 -3.4 9.6 -0.2 0.6 -1.8 0.8 -3.8 0.6 l-3.5 -0.4 1.6 -2.8 c1.8 -3.2 0.9 -5.2 -1.2 -2.9 -0.8 0.8 -1.6 4.5 -1.8 8.5 l-0.5 7.2 2.3 -2.7 c2 -2.2 2.5 -2.4 3.4 -1.1 0.6 0.8 1 4.2 1 7.5 0 3.3 0.2 8.5 0.6 11.6 0.4 3.5 0.2 6.4 -0.5 7.8 -1.2 2.1 -1.6 2.1 -29.1 2.1 -15.4 0 -27.9 -0.3 -27.9 -0.7 0.1 -0.5 0.1 -1.9 0 -3.2 -0.1 -2 -0.3 -2.2 -1.7 -1 -0.8 0.7 -1.3 2.1 -1.1 3.1 0.4 1.6 -0.1 1.8 -4.2 1.8 l-4.8 0 0.9 -6.7 c0.5 -3.8 1.4 -8.6 1.9 -10.8 0.6 -2.2 1.8 -7.4 2.9 -11.5 4.4 -17.9 14.5 -40.5 16.2 -36.2 0.1 0.5 1.5 1.2 3 1.5 2.3 0.6 3.4 -0.1 8.1 -4.8 6.7 -6.8 8.6 -7.1 5.2 -0.8 -1.4 2.7 -2.5 5.5 -2.5 6.4 0 2.4 -4.9 10.7 -7.3 12.5 -2 1.4 -2.1 1.6 -0.5 2.5 1.7 0.9 1.7 1.2 -0.3 5.1 -1.1 2.2 -1.6 3.9 -1.1 3.7 2.3 -0.9 8.7 -10 11.9 -16.9 6.2 -13.5 6.2 -13.7 5 -14.9 -0.8 -0.8 -0.6 -1.6 0.6 -2.9 0.9 -1 1.7 -2.3 1.7 -2.9 0 -0.6 0.7 -1.6 1.5 -2.3 0.9 -0.7 1.5 -2 1.4 -2.9 -0.4 -4.4 0.3 -6.1 2.9 -7.5 l2.7 -1.4 -2.8 -1.1 c-3.7 -1.5 -6.1 -0.1 -8.7 4.8 -1.1 2.2 -3.3 4.9 -5 6.1 -1.6 1.2 -3 2.6 -3 3.2 0 0.9 -1.8 3.4 -6.2 8.7 -0.7 0.9 -2.5 1.2 -5.5 0.8 l-4.4 -0.5 -3.6 5.7 c-2 3.1 -4.7 8.3 -6 11.6 -1.3 3.3 -3 7.1 -3.8 8.5 -0.7 1.4 -1.6 4.2 -2 6.3 -0.4 2 -1.1 4 -1.6 4.3 -0.5 0.3 -0.9 2.9 -0.9 5.7 0 2.9 -0.7 8.4 -1.6 12.2 -0.9 3.9 -1.8 8.7 -2.1 10.8 l-0.5 3.7 -39.6 0 c-37.5 0 -39.5 -0.1 -37.2 -1.7 1.3 -0.9 3.2 -2.5 4.2 -3.5 1 -1 2.3 -1.8 2.9 -1.8 0.5 0 2.8 -1.4 4.9 -3.1 2.1 -1.7 4.4 -2.8 5 -2.4 1.5 0.9 5.7 -1.9 11 -7.7 2.9 -3.1 5.5 -4.9 7 -5 2.6 -0.2 5 -1.5 5 -2.8 0 -1.2 -4.3 -2 -5.4 -1.1 -0.6 0.5 -2.7 1.1 -4.6 1.5 -2.5 0.4 -4 1.5 -5.4 3.9 -1.5 2.4 -2 2.8 -2.3 1.5 -0.4 -1.4 -1.3 -1.1 -6.1 2.1 -3.1 2.1 -9 5.9 -12.9 8.5 -4 2.6 -7.5 5.1 -7.8 5.7 -0.4 0.5 -1.6 0.9 -2.9 0.9 -1.2 0 -3.3 1.1 -4.6 2.5 -1.8 1.9 -3.3 2.5 -6.9 2.5 l-4.5 0 4.4 -3.7 c2.4 -2.1 9.1 -6.8 14.9 -10.5 5.9 -3.6 12.4 -8 14.6 -9.6 2.2 -1.6 5.6 -3.8 7.5 -4.7 4.1 -2.1 10 -6.7 10 -7.7 0 -1.7 -3.8 -0.6 -6 1.7 -1.6 1.7 -3.4 2.5 -5.6 2.5 -2.4 0 -4.2 1 -7 3.8 -3.2 3.1 -3.9 3.4 -4.2 1.9 -0.4 -2.1 3.2 -6.5 6.5 -7.8 2.8 -1 4.9 -4.4 5.7 -9.1 0.6 -3 0.4 -3.8 -0.9 -3.8 -0.8 0 -1.5 0.5 -1.5 1.1 0 0.7 -4.4 5.5 -9.8 10.9 -6.3 6.2 -11.1 12 -13.5 16.1 -2.2 4 -4.6 7 -6.3 7.8 -1.5 0.6 -2.9 1 -3.1 0.7 -0.6 -0.5 7.6 -17.4 10.3 -21.1 1.1 -1.6 2.4 -3.7 2.7 -4.7 0.3 -0.9 1.8 -1.9 3.4 -2.3 1.5 -0.3 4.4 -2.5 6.4 -4.8 3.2 -3.7 3.5 -4.6 2.7 -7.4 -0.5 -1.8 -1.3 -3.3 -1.8 -3.3 -0.6 0 -1 -1.1 -1 -2.5 0 -3.7 4.7 -3.4 8.4 0.4 3.4 3.6 19.6 8.8 19.6 6.3 0 -0.5 -1.6 -1.3 -3.5 -1.6 -1.9 -0.4 -3.7 -1.2 -4.1 -1.7 -0.4 -0.8 0.3 -0.9 2.2 -0.6 1.6 0.3 7.1 1.1 12.1 1.8 5.1 0.6 9 1.6 8.7 2.1 -0.3 0.5 1.9 0.8 5.3 0.6 4.3 -0.2 5.8 -0.7 5.8 -1.8 0 -0.9 1.3 -1.7 3.5 -2 1.9 -0.4 4.5 -1.2 5.8 -1.9 3.1 -1.7 6.2 -2.2 6.2 -1.1 0 0.5 2.3 -0.4 5 -2 2.8 -1.7 5.4 -3 5.8 -3 1.1 0 14.2 -12 14.2 -13.1 0 -0.5 1.6 -3.2 3.6 -6 4.6 -6.6 7.4 -13.2 7.4 -17.5 0 -2.8 -0.7 -3.9 -4.2 -6.4 -2.2 -1.6 -5 -3 -6.2 -2.9 -2 0 -2 0.1 0.3 1.7 6.9 4.7 6.7 4.4 4.8 10.3 -0.9 3 -2.7 6.4 -3.9 7.6 -1.3 1.2 -5.7 5.4 -9.8 9.5 -11.9 11.6 -18.8 15.8 -30.5 18.4 -11.3 2.5 -31.7 1.2 -42 -2.7 -6.5 -2.4 -13.6 -9.7 -16.9 -17.2 -2.3 -5 -2.3 -5.5 -1.1 -14.7 0.7 -5.2 1.8 -10.8 2.4 -12.4 1.3 -3.2 1 -4.3 -0.7 -2.3 -1.4 1.7 -4.2 12.2 -4.2 15.9 0 2.1 -0.5 2.8 -2 2.8 -1.6 0 -2 0.7 -2 3.3 0 3.6 3.6 12 7.3 17 3.9 5.3 4.1 6.1 1 3.8 -1.6 -1.2 -4.4 -4.7 -6.3 -7.7 -1.8 -3 -3.5 -5.3 -3.7 -5 -0.4 0.4 4.1 9.1 7.9 15.3 2.5 4.2 1.7 6.8 -2.8 8.9 -2.1 1 -4.4 3.3 -5.7 5.6 -1.2 2.2 -3 5.3 -3.9 7 -0.9 1.7 -2.6 4 -3.7 5.2 -2.2 2.4 -2.8 4.6 -1.1 4.6 2.3 0 0.7 4.1 -3.2 8 -4.7 4.7 -10.5 8 -14 7.9 -8.1 -0.1 -11 2 -10.2 7.2 l0.6 3.6 2.7 -2.5 c1.4 -1.4 5.1 -3.6 8.1 -4.9 3 -1.4 6.7 -3.4 8.3 -4.5 1.5 -1.1 3.1 -1.8 3.4 -1.5 0.9 1 -3.3 5.6 -10.4 11.3 -5.2 4.2 -7.4 5.4 -9.5 5.1 -1.6 -0.2 -2.9 0.2 -3.2 1 -0.4 1 -4.2 1.3 -16.7 1.3 -12.8 0 -15.9 -0.3 -15.1 -1.2 0.5 -0.7 1.3 -3.3 1.7 -5.8 0.4 -2.5 1.5 -5.2 2.4 -6 2.2 -1.9 5.6 -9.8 4.7 -10.8 -1.2 -1.2 -6.5 6 -8 10.8 -0.7 2.5 -2.4 6.4 -3.6 8.8 l-2.2 4.2 -8.3 0 -8.2 0 -0.6 -4.2 c-0.3 -2.4 -1.3 -8.8 -2.2 -14.3 -0.9 -5.5 -1.8 -11.5 -2.1 -13.2 -0.7 -4.8 -1.9 -4 -3.8 2.5 -2 7.4 -2 7.5 0.5 6.9 3 -0.8 4.6 3.1 2.6 6.9 -1.2 2.3 -1.2 3.2 -0.2 4.9 0.7 1.1 1.5 3.9 1.8 6.3 l0.5 4.2 -3.9 0 -3.9 0 0 -18.4z m48.4 9.7 c1 -1.3 4.3 -4.2 7.3 -6.4 5.4 -4 6.6 -5.8 7.8 -11.2 0.8 -3.8 6.9 -10.4 11 -11.7 1.8 -0.6 3.9 -1.8 4.5 -2.6 0.7 -0.7 2.7 -1.4 4.4 -1.4 2.7 -0.1 4 -1.2 9.7 -8.5 5.5 -7 6.8 -9.4 7.8 -14.3 0.8 -4.2 0.8 -6.7 0.1 -8.7 -1 -2.7 -3.7 -3 -3.2 -0.3 0.1 0.8 -2.5 4.3 -5.8 7.8 -3.3 3.5 -6 6.7 -6 7.2 0 1.4 -15.8 16.6 -19.9 19.3 -2.8 1.7 -4.9 4.5 -8.1 10.7 -2.4 4.5 -6.4 10.6 -8.9 13.4 -2.5 2.8 -5.3 6.3 -6.1 7.8 -1.2 2.4 -1.2 2.8 0 3.7 1.1 0.6 1.8 0.4 2.5 -0.7 0.6 -0.9 1.8 -2.7 2.9 -4.1z m7.6 2.3 c0 -1.3 0.7 -2.9 1.5 -3.6 1.5 -1.3 2.1 -4 0.8 -4 -1.5 0 -5.3 4.5 -5.3 6.2 0 1 -0.6 1.8 -1.2 1.9 -0.7 0 -0.4 0.4 0.7 0.9 3.1 1.3 3.5 1.2 3.5 -1.4z m113.5 -5.8 c1 -2.1 1.5 -4.1 1.1 -4.5 -0.8 -0.9 -3 2.3 -3.2 4.7 -0.1 0.8 -0.6 2.7 -1.2 4.1 -0.6 1.5 -0.8 3 -0.4 3.4 0.4 0.4 0.9 -0.4 1.2 -1.7 0.3 -1.2 1.4 -4 2.5 -6z m-142.3 -4.6 c1.6 -1.6 1.9 -2.5 1.1 -3.3 -0.6 -0.6 -1.6 -0.8 -2.2 -0.4 -1.6 1 -4.1 7.3 -4.1 10.4 0.1 2.4 0.2 2.4 1.6 -0.9 0.8 -1.9 2.5 -4.5 3.6 -5.8z m175.2 1.6 c0.5 -3.1 0.4 -4.8 -0.3 -4.8 -1.5 0 -2.7 5.6 -2.2 10.5 0.3 3.1 1.7 -0.1 2.5 -5.7z m-184.5 -5.4 c0.1 -2.4 -3.5 -7.1 -4.6 -6 -0.6 0.5 0.2 5.2 2.2 13.6 0.2 0.8 0.4 2 0.5 2.5 0.3 1.2 1.8 -7.1 1.9 -10.1z m136 1.9 c0.2 -0.2 -0.4 -0.6 -1.3 -0.9 -2.1 -0.8 -5.1 1.9 -6.1 5.6 -0.7 2.4 -0.5 2.3 3.1 -1 2.1 -1.9 4.1 -3.6 4.3 -3.7z m-96.8 -18.4 c9.8 -19.1 10.3 -20.7 4.7 -14.8 -2.3 2.6 -5.4 5 -6.8 5.4 -2.4 0.7 -11 8.2 -11 9.6 0 1 8.3 -2.1 10.3 -3.8 3.4 -3.1 1.6 0.6 -3.3 6.7 -2.7 3.4 -5 7.2 -5 8.4 -0.1 1.1 -0.7 3.2 -1.5 4.6 -2.5 4.4 -1.7 5.7 1.6 2.4 1.7 -1.7 6.6 -10 11 -18.5z m191.2 20 c0.2 -0.2 0.7 -1.9 1.1 -3.8 l0.6 -3.4 -2.5 2.7 c-2.8 3 -3.3 5.5 -1 5.2 0.8 -0.1 1.6 -0.4 1.8 -0.7z m-19.8 -6.8 c-0.4 -1.7 -1 -3.1 -1.5 -3.1 -1.5 0 -2.1 3.9 -1 6.1 1.7 3 3.4 0.9 2.5 -3z m-70.7 -1.6 c1 -2.1 0.9 -2.7 -0.3 -3.1 -2.1 -0.8 -3.5 0.4 -3.5 3.2 0 3.2 2.4 3.1 3.8 -0.1z m87.7 -4.7 c1.7 -2.7 1.7 -2.8 -0.3 -2.8 -4.1 0 -7.2 1.9 -7.2 4.3 0 1.3 0.5 2.8 1.1 3.4 1.3 1.3 3.4 -0.4 6.4 -4.9z m-164.7 -1.8 c6.5 -6.4 8.4 -9 6.5 -9 -2.2 0 -18.6 14.7 -17 15.4 2.6 1 3.6 0.4 10.5 -6.4z m133.2 -0.1 c0 -2.4 -2.2 -2.4 -4.4 0 -1.5 1.6 -1.5 2.2 -0.4 4 l1.3 2.2 1.8 -2.2 c0.9 -1.2 1.7 -3 1.7 -4z m-183.3 1.1 c1.9 0 2.5 -3.3 0.8 -4.2 -2 -1.2 -1.9 -4 0.1 -3.6 1.1 0.2 2.2 -1.1 3.3 -3.9 0.9 -2.3 2.2 -4.8 2.9 -5.5 0.6 -0.6 1.2 -1.9 1.2 -2.8 0 -2.2 3.7 -8.9 7.1 -12.8 3.2 -3.7 3.7 -5.5 1.3 -4.5 -1.2 0.4 -1.5 0.2 -1.2 -0.8 0.3 -0.8 1.1 -1.4 1.9 -1.4 0.8 0 2.4 -2.8 3.9 -7 1.4 -3.9 2.9 -7.6 3.3 -8.3 1.4 -2.1 0.1 -4.1 -2.4 -3.5 -1.9 0.5 -2 0.4 -1 -1.6 0.7 -1.1 0.8 -2.1 0.3 -2.1 -1.4 0 -5.4 6 -4.9 7.4 0.3 0.6 -0.1 2 -0.9 3.1 -0.8 1 -1.4 2.7 -1.4 3.7 0 1 -1.1 3.5 -2.4 5.6 -3.6 5.3 -11.8 25 -11.4 27.2 0.2 1.1 -0.5 2.5 -1.4 3.2 -1 0.7 -2.4 4 -3.3 7.3 -2.1 8.3 -2 9.3 0.8 6.7 1.3 -1.2 2.8 -2.2 3.4 -2.2z m203.9 -3.7 c0.4 -1.6 1.3 -3.7 2 -4.8 0.8 -1.1 1.4 -2.9 1.4 -4 0 -1.1 0.7 -2.8 1.5 -3.9 0.8 -1 1.7 -3.7 2 -6 0.4 -2.2 1.9 -6.4 3.4 -9.1 l2.8 -5 9.2 -0.1 c7 -0.1 9.4 0.2 9.8 1.2 0.9 2.3 4 1.5 6.7 -1.7 4.5 -5.4 3.7 -5.8 -4.9 -2.5 -4.4 1.6 -21.5 2.2 -21.5 0.7 0 -0.5 2.9 -3.6 6.5 -7 5 -4.6 6.2 -6.3 5 -6.7 -2.3 -0.9 -5.8 0.3 -11 3.8 -4.2 2.9 -5.2 4.4 -8.7 12.8 -2.2 5.2 -5 10.6 -6.3 12 -1.3 1.4 -3 4.1 -3.9 6 -0.9 1.9 -2.6 5 -3.7 6.8 -2.6 4 -2.2 4.6 1.5 2.7 1.6 -0.8 3.2 -1.5 3.7 -1.5 1.2 0 1.1 3.4 -0.1 4.6 -1.5 1.5 -0.1 4.4 2.1 4.4 1.2 0 2.1 -1 2.5 -2.7z m-219.8 -4 c-0.5 -15.2 1.5 -21 10.3 -30 4.6 -4.6 6.8 0.6 3.1 7.7 -1.2 2.4 -2 5 -1.7 5.8 0.3 0.7 -0.9 5.4 -2.6 10.4 -1.6 5 -2.8 9.2 -2.6 9.4 0.9 1 2.7 -2.6 5.6 -11.1 4.8 -14.1 10 -27.7 11.3 -29.3 1.5 -1.8 3.9 -8.5 3.2 -9.1 -0.2 -0.3 -2.9 2.1 -6 5.3 -3 3.2 -5.8 5.6 -6.1 5.2 -0.3 -0.3 0.1 -1.4 1 -2.4 1 -1 1.7 -2.2 1.7 -2.5 0 -1.7 -2.3 -0.3 -5.8 3.4 -7.7 8.5 -12.3 15.5 -14.2 21.8 -1.8 5.6 -1.9 6.6 -0.6 8 1.1 1.3 1.3 2.6 0.6 5.5 -0.6 2.6 -0.5 4.5 0.3 5.7 2 3.2 2.7 2.1 2.5 -3.8z m148.6 4.2 c0.6 -1.7 0.4 -1.8 -1.8 -0.9 -2 0.8 -2.1 2.4 -0.2 2.4 0.8 0 1.6 -0.7 2 -1.5z m16.9 -4.3 c1.6 -2.4 2.6 -4.6 2.3 -4.9 -0.9 -0.9 -5.5 3.6 -7.3 7 -1.3 2.7 -1.3 2.8 0.3 2.5 1 -0.2 3.1 -2.3 4.7 -4.6z m-26 0.7 c4.5 -1.6 4.6 -2.4 0.6 -3.8 -3.4 -1.2 -6.6 -1.5 -5.7 -0.5 0.4 0.3 0.2 1.9 -0.2 3.6 -0.7 2.2 -0.6 2.9 0.3 2.5 0.7 -0.2 2.9 -1 5 -1.8z m-10.5 -2.2 c1 -1.2 0.8 -1.3 -1.2 -1 -1.3 0.3 -2.6 1.3 -2.9 2.4 -0.4 1.5 -0.2 1.7 1.2 0.9 1 -0.5 2.3 -1.5 2.9 -2.3z m64.2 1.3 c0.6 -1.1 0.7 -2 0.2 -2 -1 0 -3.2 2.1 -3.2 3.2 0 1.6 1.9 0.8 3 -1.2z m39.4 -0.9 c0.8 -1.2 -2 -2.2 -3.9 -1.5 -1.9 0.8 -0.9 2.4 1.5 2.4 1 0 2.1 -0.4 2.4 -0.9z m-115.3 -4.4 c-1.3 -1.3 -2.6 -0.3 -1.6 1.2 0.3 0.6 1.1 0.8 1.7 0.5 0.6 -0.4 0.6 -1 -0.1 -1.7z m125.9 -7.7 c1.8 -4.5 3 -8.3 2.7 -8.6 -1.2 -1.2 -5.9 4.4 -6.7 8.1 -2.5 10.9 -0.3 11.2 4 0.5z m-187.9 2.8 c1.8 -1.3 4.4 -5.1 6.1 -8.5 1.8 -4 5.4 -8.7 9.6 -13 4.1 -4.2 7.4 -8.6 8.4 -11.3 l1.7 -4.5 -2.9 3.6 c-1.6 2 -6 6.2 -9.8 9.3 -4.4 3.7 -7.9 7.6 -9.6 10.9 -1.6 2.9 -4.1 7.6 -5.8 10.5 -3.2 5.6 -2.5 6.5 2.3 3z m-17.1 -0.8 c0.8 -0.5 7.8 -6.9 15.4 -14.2 29.7 -28.3 27.3 -25.7 28 -31.3 0.5 -4.5 0.4 -4.8 -0.9 -3 -0.8 1.1 -1.9 2.5 -2.4 3.1 -0.5 0.6 -4.1 1.4 -8 1.8 -6 0.6 -8.9 0.3 -19.3 -2.3 -11.6 -2.9 -13.3 -3.1 -29 -2.8 -9.3 0.1 -16.8 0.5 -16.8 0.8 0 1.2 9 1.6 22.3 1.1 9.4 -0.3 13.6 -0.1 14.1 0.7 0.4 0.6 1.9 1.1 3.3 1.1 3.2 0 9.3 2.1 9.3 3.2 0 0.4 -0.7 0.8 -1.5 0.8 -0.8 0 -1.5 0.4 -1.5 1 0 0.5 -1.2 1.6 -2.7 2.4 -4.1 2.3 -1 1.9 3.4 -0.3 2.1 -1.1 5 -2.3 6.5 -2.6 2.4 -0.6 2.6 -0.4 2.1 1.6 l-0.6 2.2 3 -2.2 c1.9 -1.4 5.1 -2.4 8.8 -2.8 l6 -0.6 -12.1 11.9 c-6.7 6.5 -13.1 13.3 -14.3 15.1 -1.2 1.8 -3.6 4.2 -5.3 5.4 l-3.1 2.3 0.7 -2.7 c1.2 -5.1 6.1 -13.6 11 -19.1 2.7 -3.1 4.6 -5.9 4.3 -6.2 -1.1 -1.1 -14 6 -16 8.8 -1.9 2.5 -1.9 2.8 -0.4 5.2 1.6 2.4 1.5 2.8 -2.2 10.3 -5.7 11.7 -6.2 13.9 -2.1 11.3z m241.4 0.4 c0.8 -0.3 1.2 -1.2 0.9 -2 -0.4 -1 -1 -1.1 -2.4 -0.3 -3.4 1.8 -2.2 3.7 1.5 2.3z m-116.9 -1.4 l2 -0.9 -2 0 c-1.1 0 -2.9 0.4 -4 0.9 l-2 0.9 2 0 c1.1 0 2.9 -0.4 4 -0.9z m-130 -6 l0.6 -3.5 -1.5 3.4 c-1.8 3.8 -2.1 6 -0.6 4.5 0.5 -0.5 1.2 -2.5 1.5 -4.4z m219.1 0.4 c-0.3 -0.8 -1 -1.4 -1.6 -1.4 -1.1 0 -1.4 4.3 -0.3 5.4 1 1 2.6 -2.3 1.9 -4z m33.3 1 l-2.4 -2.7 2.8 0.7 c2.1 0.5 2.8 0.3 2.5 -0.6 -0.3 -0.7 -2.1 -1.4 -4.1 -1.6 -2.8 -0.2 -3.7 0.1 -3.7 1.2 0 2.1 3.6 5.6 5.7 5.6 1.4 0 1.2 -0.5 -0.8 -2.6z m-284.1 -13.7 c3.6 -5.8 4.4 -8.9 1.5 -6.6 -1.4 1.3 -1.6 1.1 -1.1 -1.1 0.3 -1.4 0.9 -3.3 1.3 -4.4 0.6 -1.4 0.4 -1.8 -0.6 -1.5 -0.8 0.3 -3.1 3.9 -5.1 8 -3.5 6.9 -3.7 7.9 -2.6 11 1 2.9 1.3 3.1 2.2 1.5 0.6 -1 2.6 -4.1 4.4 -6.9z m36.3 5 c1.2 -2.2 1.2 -2.2 -1 -0.3 -1.1 1.1 -2.1 2.3 -2.1 2.8 0 1.4 1.9 -0.1 3.1 -2.5z m267.6 1.6 c0.4 -1 1.1 -2.1 1.6 -2.4 0.5 -0.4 0.5 -0.9 -0.2 -1.3 -0.6 -0.4 -1.1 -0.2 -1.1 0.3 0 0.6 -1.4 1.1 -3.2 1.1 -3 0 -3.1 0 -1.3 2 2.2 2.5 3.4 2.5 4.2 0.3z m-170.2 -13.9 c11 -4.5 43.5 -23.4 43.5 -25.3 0 -0.4 1.4 -2.2 3.1 -4 2.5 -2.7 3.3 -3.1 4 -2 1.5 2.4 1.1 12.2 -0.7 14.7 -1.5 2.1 -1.4 2.2 1.9 2.2 7.2 0 8.7 -6.9 3.2 -15.1 -3.3 -5.1 -3.2 -7.1 1.1 -17.1 4.5 -10.6 10.4 -27.4 10.4 -29.8 0 -1.1 1.5 -3.1 3.4 -4.5 1.9 -1.4 3.7 -3.3 4 -4.2 1.5 -3.7 4.7 -20.5 5.7 -29.2 1 -8.9 0.9 -9.4 -1.1 -11.6 -2.8 -2.9 -2.4 -5.9 3.1 -23.9 3.5 -11.3 3.9 -13.6 3.3 -19.5 -1.7 -18.5 -4.7 -27.6 -12.1 -36.1 -2.1 -2.5 -6.3 -7.6 -9.3 -11.5 -2.9 -3.8 -6.3 -7.7 -7.4 -8.5 -8.7 -6.4 -25.8 -12.5 -37.9 -13.5 -5.4 -0.4 -7.7 -0.3 -7.2 0.5 0.3 0.5 2.4 1 4.6 1 2.2 0 5.6 0.7 7.7 1.6 3.3 1.4 3.5 1.7 1.7 2.4 -1.6 0.7 -1.2 0.9 1.8 0.9 6 0.1 20.6 6.6 24.5 10.8 3.9 4.3 4.6 7.9 0.7 4.3 -1.4 -1.3 -2.5 -1.9 -2.5 -1.3 0 0.6 0.7 1.4 1.6 1.7 1 0.4 1.4 1.2 1 2.2 -0.4 1.1 -0.1 1.4 1.2 1 1.4 -0.5 4 1.7 10.5 8.9 9.5 10.5 11.2 13.5 13.3 24.3 2.5 13 1.4 23.6 -3.6 35 -2.3 5.1 -3.5 4.9 -4.3 -0.8 -0.5 -4.2 -1 -4.8 -9.4 -11.7 -2.8 -2.3 -4 -4 -3.8 -5.4 0.2 -1 0 -1.9 -0.6 -1.9 -0.5 0 -0.9 0.4 -0.9 1 0 0.5 -0.7 0.7 -1.5 0.4 -2.1 -0.8 -1.9 1.3 0.5 4.3 3.7 4.7 2.3 6 -2 1.8 -2.2 -2.1 -4 -4.4 -4 -5 0 -0.6 -0.9 -1.8 -2 -2.7 -2.9 -2.6 -3.5 -0.3 -1.1 4.3 1.2 2.2 2.1 4.4 2.1 4.9 0 2 -4.7 -1.3 -7 -5 -2.9 -4.7 -6.1 -6.6 -12.5 -7.5 -2.7 -0.5 -7.3 -1.9 -10.3 -3.2 -5.2 -2.3 -5.8 -2.3 -17.1 -1.3 -6.4 0.5 -12 1 -12.6 1.1 -3.3 0.4 6.4 1.7 13.7 1.8 6.7 0.1 10.3 0.7 15.4 2.6 6.9 2.6 11.3 3.1 12.9 1.6 0.6 -0.6 3.4 1.3 7.5 5 4 3.6 8.1 6.4 10.5 7.1 2.2 0.6 4.5 1.6 5.2 2.1 0.7 0.5 2.5 0.6 4.2 0.2 2.5 -0.5 3.2 -0.2 5.3 2.7 5 6.8 7.7 22.1 7.8 43.8 0 10.4 -1.7 18.6 -5.4 25.9 -6.3 12.4 -10.2 20.9 -11.1 24.1 -0.6 1.9 -1.6 3.6 -2.3 3.6 -0.7 0.1 -1.9 0.2 -2.7 0.3 -0.9 0 -2.1 1.3 -2.8 2.9 -2.5 5.7 -6.9 12.2 -8.3 12.2 -0.8 0 -1.9 -1.2 -2.5 -2.7 -1 -2.7 -1.1 -2.7 -2.1 -0.8 -1.1 1.9 -1.8 6 -1.9 11.5 0 1.4 -0.8 3.3 -1.7 4.3 -1.6 1.8 -1.7 1.8 -2.2 -0.3 -0.8 -3.2 -2.4 -2.6 -3.5 1.5 -1.1 3.6 -2.8 5.5 -5.2 5.5 -0.9 0 -1 -0.7 -0.4 -2.2 0.7 -2 -0.7 -6.9 -2.7 -9.8 -1.1 -1.5 -1.8 2.8 -1 6.2 1.7 7.6 -2.6 9.3 -16.1 6.4 -6.2 -1.4 -11.1 -4 -11.9 -6.4 -0.5 -1.7 3.7 -1.5 5.4 0.3 0.9 0.8 2.4 1.5 3.5 1.5 1.5 0 1.9 -0.7 1.9 -3.7 0 -2.1 -0.4 -4.4 -0.9 -5.2 -0.8 -1.3 -1.2 -1.3 -2.7 0 -1.8 1.5 -5.1 1.4 -7.1 -0.3 -0.9 -0.7 -1.3 -0.7 -1.3 0.1 0 1.4 -3.7 1.5 -4.5 0.1 -0.4 -0.6 -1 -0.8 -1.5 -0.5 -0.5 0.3 -1.4 -0.3 -1.9 -1.4 -1.5 -2.8 -1.4 -3.6 0.4 -2.1 1.3 1.1 1.5 0.5 1.5 -4.4 0 -6.5 -1.7 -7.5 -2.6 -1.6 -0.6 3.9 -0.8 4 -2.5 2.4 -1 -0.9 -2.6 -4.2 -3.5 -7.2 -0.8 -3.1 -3.8 -11.2 -6.6 -18.1 -4.3 -10.7 -4.9 -13.3 -4.5 -17.2 0.4 -2.7 -0.1 -7.1 -1 -10.5 -2.4 -9.5 -3.2 -9.6 -2.7 -0.5 0.2 4.7 0.2 8.2 -0.2 7.9 -1 -1.1 -3.3 -16.2 -3.4 -22.1 0 -3.2 0.7 -8.8 1.5 -12.5 3.5 -16.2 5.7 -30.2 5.9 -39.1 0.3 -9.9 1.7 -14.4 8.3 -27.4 2.2 -4.5 2.6 -4.7 5.6 -4.2 4 0.6 10.3 -0.8 10 -2.3 -0.2 -0.6 0.9 -1.5 2.4 -1.8 2.2 -0.6 3.2 -0.1 5.7 2.8 3.4 4 5.3 4.7 13.7 5.7 l5.7 0.7 -1.5 -2.2 c-1.3 -2.1 -1.2 -2.3 1.8 -2.9 2.3 -0.5 2.8 -1 1.8 -1.6 -1.2 -0.7 -1.1 -0.9 0.1 -0.9 1.1 0 1 -0.3 -0.4 -1.2 -1 -0.6 -6.4 -1.3 -12 -1.6 -11.4 -0.5 -15.1 -1.5 -14.2 -3.7 0.8 -2.2 -3 -1.9 -6.2 0.4 -2 1.4 -3.9 1.8 -7.5 1.5 -4.3 -0.4 -4.8 -0.2 -5.9 2.1 -1.5 3.4 -3.4 3.2 -4.7 -0.7 -0.6 -1.7 -1.8 -3.9 -2.7 -4.9 -1.9 -2.1 -3.3 -25.2 -1.6 -26.3 0.6 -0.4 0.8 0.2 0.5 1.6 -0.5 2.3 -0.5 2.3 1 0.3 0.9 -1.1 1.7 -2.7 1.7 -3.7 0 -1.6 7.5 -7.8 9.4 -7.8 0.6 0 0.3 0.5 -0.6 1 -3.1 1.9 -7.7 7 -6.2 7 0.8 0 2.2 -0.9 3.1 -2 1 -1.1 2.1 -2 2.6 -2 0.4 0 2.2 -1.5 3.9 -3.3 1.8 -1.7 4.3 -3.7 5.7 -4.4 1.4 -0.6 2 -1.2 1.2 -1.2 -2.2 -0.1 -15.4 4.9 -17.2 6.5 -0.9 0.8 -2.7 1.6 -3.9 1.7 -1.3 0.1 -3.2 1.7 -4.9 4.3 -2.4 3.5 -2.9 5.5 -3.5 13.4 -0.3 5.1 -0.9 9.6 -1.2 10.1 -0.3 0.5 -0.1 0.9 0.5 0.9 0.6 0 1.5 -1.5 2 -3.3 0.7 -2.5 0.9 -2.7 1 -0.9 0.1 1.2 1.5 5.8 3.1 10.1 2.2 5.7 3.7 8.1 5.5 8.9 1.4 0.6 2.5 1.6 2.5 2.1 0 1.9 -6.9 6.5 -12.2 8.3 -5.3 1.7 -5.3 1.7 -7.1 -0.5 -1 -1.2 -1.5 -1.5 -1.1 -0.7 0.4 0.8 1.4 2.3 2.2 3.3 1.3 1.5 1.3 1.7 0 1.7 -0.9 0 -2.1 -1.4 -2.8 -3 -1.8 -4.2 -3 -4.7 -3 -1.1 0 2.1 1.1 4.3 3.5 7 4.5 4.9 6 9.3 8 23.1 1.7 11.5 1.5 15.4 -0.7 13.2 -2.6 -2.6 -3 -0.7 -2.4 13.6 0.4 8.1 0.6 16.8 0.6 19.4 0 2.6 0.5 5 1 5.3 0.6 0.3 1 2.3 1 4.4 0 7.1 9.7 42.7 14.6 53.7 4.4 9.9 4.6 10.5 3.5 15.2 -1.3 6.1 -0.2 10.6 3.9 15.7 1.7 2.1 3.1 4.4 3.2 5.1 0 0.8 0.1 2 0.2 2.7 0.4 4.4 13.2 4.5 24.1 0.1z m67.5 -6.7 c1.2 -1.5 2.5 -2.5 2.9 -2.2 0.5 0.2 2.4 -1.1 4.4 -3.1 3.5 -3.5 3.5 -3.5 1.9 -6.7 l-1.6 -3.2 -0.6 3 c-1 4.8 -3.1 8 -4 6.4 -0.6 -0.9 -1.3 -0.4 -2.7 2 -1 1.8 -2.8 4.9 -4 6.8 -2.8 4.1 -3 5.8 -0.3 2.3 1 -1.4 2.9 -3.7 4 -5.3z m-191.5 2.5 c-0.6 -0.7 -3.5 1.8 -3.5 3.1 0 0.5 0.9 0.2 2 -0.8 1.1 -1 1.8 -2 1.5 -2.3z m246.5 0.8 c0 -0.5 1.2 -1 2.8 -1 l2.7 -0.1 -2.5 -2.1 -2.5 -2 -0.3 2.1 c-0.3 1.5 -1.1 2.1 -3 2.2 -2.4 0 -2.5 0.1 -0.7 0.9 2.7 1.2 3.5 1.2 3.5 0z m-81 -1.6 c1.5 -0.5 6.6 -7.4 5.5 -7.4 -2.3 0 -7.5 4.4 -7.5 6.3 0 0.9 -0.5 1.8 -1 2 -1.1 0.6 0.2 0.2 3 -0.9z m-169.7 -9.9 c3.6 -1.8 4.8 -3.5 2.6 -3.5 -1.8 0 -7.9 4 -7.9 5.2 0 0.5 0.3 0.8 0.8 0.6 0.4 -0.2 2.4 -1.2 4.5 -2.3z m80.1 -2.4 c-0.6 -0.6 -2.4 1.9 -2.4 3.4 0.1 0.6 0.7 0.1 1.5 -0.9 0.8 -1.1 1.2 -2.2 0.9 -2.5z m6.3 -16.7 c-0.8 -0.8 -3.9 3.6 -5.3 7.3 -2.6 7.4 -1.4 7.6 2.1 0.4 2 -4.1 3.4 -7.5 3.2 -7.7z m-99.7 10.1 c0 -0.8 -0.6 -1.5 -1.4 -1.5 -0.7 0 -1.9 0.7 -2.6 1.5 -1.1 1.3 -0.8 1.5 1.4 1.5 1.6 0 2.6 -0.5 2.6 -1.5z m40 -6.5 c0 -0.5 -1.4 -0.7 -3.2 -0.3 -4.6 0.8 -4.8 1.3 -0.5 1.3 2.1 0 3.7 -0.4 3.7 -1z m16 -1.6 c0 -2.2 -0.3 -2.4 -2.2 -1.9 -1.3 0.4 -3.1 0.9 -4 1.1 -3.6 1 -2 3.4 2.2 3.4 3.6 0 4 -0.2 4 -2.6z m14.8 1 c1.4 -0.4 1.7 -3.4 0.3 -3.4 -0.5 0 -2.3 -0.3 -4 -0.6 -2.9 -0.6 -3.1 -0.5 -3.1 2.5 0 2.9 0.2 3.1 2.8 2.5 1.5 -0.3 3.3 -0.7 4 -1z m14.1 -2 c4.6 -1 4 -3.4 -0.9 -3.4 -3.3 0 -4 0.3 -4 2 0 2.2 0.3 2.3 4.9 1.4z m74.7 -5.9 c1.9 -0.8 3.4 -1.8 3.4 -2.3 0 -0.9 -14.5 -2.2 -24.3 -2.2 -4.7 0 -4.8 0.1 -4.5 2.7 0.2 1.9 1.1 3 2.8 3.5 3.7 1.1 18.6 0 22.6 -1.7z m18.6 -16.7 c1 -3.3 0.9 -4.1 -0.7 -5.8 -1.1 -1.2 -3.1 -2 -5.2 -2 -1.8 0 -5.5 -1.1 -8.2 -2.4 -4.2 -2.2 -7.1 -2.7 -18.3 -3.5 -0.4 -0.1 -1.9 -1.9 -3.3 -4.1 -2.2 -3.4 -3 -4 -6 -4 -6.2 0 -6.8 -5.2 -1.1 -9.7 1.8 -1.5 2.3 -2.6 1.9 -4.6 -0.3 -1.5 -1.1 -2.7 -1.9 -2.7 -1.7 0 -2.7 1.9 -6 11 -2.6 7.3 -2.6 11.3 0 9.1 1 -0.9 2.1 -0.7 4.5 0.6 1.7 1 3.1 2.3 3.1 2.9 0 2 -2.9 3.6 -6.5 3.6 -1.9 0 -3.5 0.3 -3.5 0.8 0 2.3 3.5 3.1 12.7 3 11 0 16.9 0.9 26.2 4.2 6.8 2.5 7.2 2.8 9.3 9.8 l1.3 4.5 0.3 -3.5 c0.1 -1.9 0.7 -5.2 1.4 -7.2z m-13.2 5.7 c1 -1.2 0.7 -1.5 -1.4 -2.1 -4.4 -1.1 -1.7 -2.5 3.5 -1.8 3.3 0.4 4.9 0.3 4.9 -0.5 0 -1.3 -4.2 -2.4 -8.4 -2.3 -3.2 0.1 -6.9 0 -9.8 -0.1 -0.9 -0.1 -1.6 -0.6 -1.5 -1.2 0.3 -1.4 -6.1 -1.9 -7.8 -0.5 -1 0.8 -2.5 0.8 -5.7 -0.1 -4.4 -1.2 -6.5 -1.5 -10.5 -1.8 -1.9 -0.1 -2.3 -0.7 -2.3 -3.5 0 -3.7 -1.9 -4.9 -5.8 -3.5 -2.5 0.9 -4.7 5 -3.9 7.1 0.3 0.8 3.5 1.8 7.8 2.5 4.1 0.6 10.8 1.7 14.9 2.4 4.1 0.6 10.3 1.4 13.8 1.6 3.4 0.3 6.2 0.9 6.2 1.3 0 0.4 -1 1.5 -2.2 2.3 -2.2 1.6 -2.2 1.6 2.3 1.6 2.9 0.1 5.1 -0.4 5.9 -1.4z m-26 -1.5 c-1 -1.8 -5.5 -3.8 -6.5 -2.8 -0.9 0.9 3.6 4.8 5.6 4.8 1.7 0 1.8 -0.3 0.9 -2z m27.5 -22 c1.8 -2 1.7 -2 -1.1 -2.1 -5.4 -0.2 -8.9 0.3 -10.3 1.4 -1.2 1 -0.6 1.3 3 1.8 2.4 0.3 4.9 0.7 5.5 0.7 0.6 0.1 1.9 -0.7 2.9 -1.8z m1.5 -9.9 c0 -2.3 -2.7 -7.1 -3.7 -6.7 -0.7 0.3 -1.7 -0.2 -2.2 -1.2 -1.2 -2.2 -2 -18.7 -1 -20.3 0.9 -1.5 6.5 0.5 7.3 2.7 0.8 2.1 2.6 1.7 2.6 -0.7 0 -2.5 1.7 -5.9 3 -5.9 0.6 0 1 1.4 1 3.1 0 4.3 1.7 6.9 4.5 6.9 2.5 0 6.5 -3.5 6.5 -5.7 0 -1.7 1 -1.6 3.2 0.4 1.7 1.6 2.6 5.5 1.1 5.1 -0.5 0 -2.6 0.7 -4.7 1.6 -3.5 1.6 -4.7 1.6 -9.7 0.6 -7.6 -1.6 -9.3 -0.9 -3.8 1.8 6.2 3 12.3 1.9 20.7 -3.7 3.4 -2.3 6.2 -4.3 6.2 -4.6 0 -2.8 -4.9 -6.5 -8.6 -6.5 -1.6 0 -1.6 0.2 0.2 1.6 1.8 1.5 1.8 1.5 -1.1 0.9 -1.6 -0.3 -3.7 -0.8 -4.6 -1.1 -1.1 -0.3 -1.9 0.3 -2.4 1.8 -0.8 2.2 -0.8 2.2 -1.2 -0.5 -0.2 -1.5 -0.8 -2.5 -1.3 -2.2 -0.5 0.3 -1.5 -0.2 -2.4 -1 -1 -1.1 -3.2 -1.5 -6.3 -1.4 -2.7 0 -5.7 -0.2 -6.9 -0.6 -3.1 -1 -6.4 2.3 -7.4 7.5 -0.4 2.5 -1.1 8.8 -1.5 14.1 -0.9 12.5 0.1 14.6 7.5 14.5 2.7 -0.1 5 -0.3 5 -0.5z m-24 -17 c0 -2.6 0.4 -7.2 1 -10.1 0.7 -3.9 0.7 -5.9 -0.3 -7.8 -1.4 -2.9 -3.7 -4.1 -3.7 -1.9 0 0.8 -0.7 2 -1.5 2.7 -1.3 1.1 -1.9 0.9 -3.8 -0.8 -4 -3.8 -12.6 -5.4 -18.6 -3.6 -1.8 0.5 -2.2 0.4 -1.6 -0.6 0.6 -1 -0.4 -1.1 -4.9 -0.6 -5.2 0.7 -5.6 0.6 -5.6 -1.3 0 -1.1 0.8 -2.5 1.8 -3 2.9 -1.5 24.6 1.2 32 4 2 0.8 2.2 0.5 2.2 -1.9 0 -3.6 -1.7 -5.2 -5.4 -5.2 -1.6 0 -4.8 -1.1 -7 -2.4 -5.4 -3.1 -19.5 -4.3 -23.1 -2 -2.7 1.8 -3.3 3 -4.9 10.5 -1.4 6.5 -1.2 7.2 3.1 12.4 2.5 3 3.5 3.7 4.5 2.7 0.9 -0.9 0.9 -1.8 0 -3.6 -1.3 -2.9 0.3 -4.8 2 -2.5 0.8 1.1 0.9 1.1 0.5 -0.3 -0.3 -0.9 0.2 -2.3 1.2 -3.2 2.4 -2.2 3.1 -2 3.1 0.7 0 3.6 2.7 6.7 5.9 6.7 3.2 0 4.4 -1.1 5.9 -5.5 l1 -3 1.8 4.2 c1.7 3.7 2.3 4.3 5 4.3 3.5 0 4.4 1.6 4.4 8 0 3.3 2.5 8 4.3 8 0.4 0 0.7 -2.2 0.7 -4.9z m-40.7 -2.8 c0.5 -2.6 0.4 -2.6 -0.9 -0.8 -1.6 2.2 -1.8 3.5 -0.5 3.5 0.5 0 1.1 -1.2 1.4 -2.7z m24.8 -2.9 c1.7 -0.8 2.8 -1.8 2.5 -2.1 -0.3 -0.4 -4.7 -0.7 -9.7 -0.8 -6.2 0 -8.4 0.2 -6.8 0.8 1.3 0.5 3.5 1.5 4.9 2.2 3.4 1.8 5.6 1.8 9.1 -0.1z m76.1 -15.6 c-0.2 -1 -1.5 -2.8 -2.8 -4.1 -1.9 -2 -3.9 -2.6 -10.6 -3.2 -10.9 -1 -11.5 -1 -16.6 -0.2 -2.8 0.5 -4.1 0.4 -3.7 -0.2 0.3 -0.6 -0.6 -1.3 -2.1 -1.7 -4.6 -1.2 -8.5 5.6 -5 8.5 1.1 0.9 1.5 0.8 2 -0.6 0.5 -1.2 0.9 -1.4 1.5 -0.5 0.4 0.8 5.4 1.4 14.7 1.8 11.6 0.5 14.5 1 17.9 2.8 3.4 1.9 4.1 2 4.6 0.7 0.3 -0.9 0.4 -2.4 0.1 -3.3z m-4.6 -14.9 c0.3 -0.6 0 -1.5 -0.7 -2 -0.8 -0.5 -1 -0.9 -0.5 -0.9 0.5 0 0.3 -0.7 -0.4 -1.5 -1.8 -2.2 -9 -1.7 -9 0.6 0 3.5 8.8 6.6 10.6 3.8z m-87.1 -7.9 c2.9 -1.1 2.9 -1.2 1.1 -2.6 -1.1 -0.8 -1.6 -1.4 -1.2 -1.4 0.5 0 0.3 -0.7 -0.4 -1.5 -1.8 -2.2 -2.6 -1.9 -4.4 2 -1.8 3.6 -1.5 5.7 0.7 5 0.7 -0.2 2.6 -0.9 4.2 -1.5z m73.5 -27.9 c0 -0.5 -0.7 -1.4 -1.5 -2.1 -1.3 -1 -1.5 -0.9 -1.5 0.9 0 1.2 0.6 2.1 1.5 2.1 0.8 0 1.5 -0.4 1.5 -0.9z m-11.2 -7 c0.3 -0.8 0 -1.1 -0.5 -0.8 -1.1 0.7 -4 -0.9 -3.2 -1.8 0.8 -0.8 6.9 1.5 6.9 2.7 0 0.5 1.2 0.8 2.8 0.6 2.1 -0.2 2.7 -0.8 2.7 -2.7 0 -1.8 -1.4 -3.2 -6.1 -6.1 -4.8 -2.9 -14.2 -7 -16 -7 -0.2 0 -0.1 0.6 0.2 1.4 0.7 1.9 -4.4 7.6 -6.8 7.6 -2.5 0 -2.3 1.7 0.3 2.5 1.7 0.6 1.8 0.9 0.8 1.6 -2.2 1.3 -0.1 2.4 6.4 3 8.7 0.9 12 0.6 12.5 -1z m-86.8 -2.1 c0 -0.5 0.7 -1 1.5 -1 0.9 0 1.8 -0.7 2.1 -1.5 0.7 -1.7 3.4 -2.1 3.4 -0.5 0 0.6 0.8 1 1.8 1.1 1.4 0 1.4 0.2 -0.3 0.9 -1.3 0.6 -1.5 0.9 -0.5 0.9 0.8 0 2.6 -0.8 4 -1.9 1.9 -1.4 2.1 -2 1 -2.3 -5.6 -1.7 -9.8 -2.6 -11.5 -2.4 -1.5 0.2 -2.1 -0.5 -2.3 -2.5 -0.3 -2.7 1.2 -4 2 -1.6 0.5 1.5 2.8 0.1 2.8 -1.8 0 -0.8 -0.7 -1.7 -1.5 -2 -1 -0.4 -1.3 -1.5 -0.9 -3.7 0.5 -3.2 0.5 -3.2 -1.7 0.8 -2.6 4.6 -4.3 15.3 -2.7 17.2 1.3 1.5 2.8 1.7 2.8 0.3z m115.1 -6 c1.4 -1.1 1.8 -1.9 1.1 -2 -0.7 0 -2 -0.7 -2.9 -1.5 -0.8 -0.8 -1.9 -1.3 -2.4 -1 -0.5 0.4 -0.9 0.2 -0.9 -0.3 0 -0.6 -1.7 -0.8 -3.9 -0.5 -2.3 0.3 -4.1 0.1 -4.5 -0.6 -0.4 -0.6 -3.3 -1.1 -6.5 -1.1 -5.1 0 -6.1 -0.4 -9.2 -3.2 -1.9 -1.8 -3.1 -3 -2.5 -2.5 0.5 0.4 2.1 0.7 3.6 0.7 1.4 0 4.5 0.7 6.9 1.6 4.8 1.6 6.9 1.2 2.8 -0.7 -1.5 -0.7 -2.4 -1.6 -2.1 -2 0.2 -0.4 -1.2 -1.1 -3.3 -1.5 -2.1 -0.4 -6.2 -1.5 -9.2 -2.5 -6.6 -2.3 -7.1 -2.3 -7.1 -0.3 0 1.3 -0.7 1.5 -3.2 1 -3.2 -0.5 -6.9 0.6 -5.2 1.7 0.5 0.2 3.2 0.8 6 1.2 3.2 0.4 6 1.5 7.6 3 3.3 3.1 8.2 5.5 11 5.5 1.3 0 3.9 1 5.8 2.2 2.9 1.9 9.9 4.1 14.6 4.7 0.7 0 2.2 -0.8 3.5 -1.9z m-44.3 -7.7 c-1 -0.2 -2.8 -0.2 -4 0 -1.3 0.2 -0.5 0.4 1.7 0.4 2.2 0.1 3.2 -0.1 2.3 -0.4z m45 -2.5 c-0.4 -3 -6.2 -6.2 -10.7 -6 -2 0.1 -4.9 -0.5 -6.6 -1.3 -2.3 -1.2 -2.4 -1.4 -0.7 -1.1 3.9 0.7 2.4 -1.4 -2.5 -3.6 -2.7 -1.1 -5.8 -3.3 -7.1 -4.9 -1.3 -1.6 -2.8 -2.9 -3.4 -2.9 -0.6 0 -1.9 -0.6 -2.7 -1.4 -0.9 -0.8 -4.9 -3.1 -8.9 -5 -3.9 -2 -7.2 -3.8 -7.2 -4 0 -0.3 -0.3 -1.1 -0.6 -2 -0.5 -1.2 0 -1.6 1.9 -1.6 1.4 0 2.7 0.7 3 1.4 1.3 3.2 6.4 4.7 13.5 3.9 3.7 -0.4 5.8 -0.9 4.7 -1.1 -1.1 -0.2 -2.4 -0.8 -2.9 -1.3 -0.6 -0.5 -2.3 -0.9 -3.8 -0.9 -1.6 0 -5.3 -1.4 -8.3 -3.1 -5 -2.8 -6.3 -3.1 -14.7 -3.2 -9 -0.1 -15.8 0.4 -15.8 1.1 0 1.3 8.1 3.2 13.7 3.2 6.5 0 7.8 1.3 2.3 2.3 -2.5 0.4 -2.5 0.4 0.2 0.6 2.5 0.1 5.2 2.1 2.9 2.1 -2 0 -1.1 1.9 1.2 2.5 1.2 0.4 3.6 1.7 5.2 2.9 4.7 3.5 11.7 7.2 15.8 8.5 2 0.7 3.5 1.6 3.2 2 -0.9 1.6 2.4 3.7 17 11 9.4 4.7 11.8 5.1 11.3 1.9z m-66.7 -5 c1.9 -1.3 4.6 -2.9 6.2 -3.7 2.6 -1.4 3.8 -5.1 1.6 -5.1 -0.5 0 -0.8 0.4 -0.5 0.9 0.6 1 -1.6 2.1 -4.1 2.1 -2.5 0 -10.3 4.2 -10.3 5.6 0 0.7 -0.6 1.5 -1.2 1.7 -0.7 0.3 0.1 0.6 1.8 0.6 1.7 0.1 4.6 -0.9 6.5 -2.1z m-30.5 -13.4 c-0.3 -0.8 -1.1 -1.4 -1.7 -1.4 -1.1 0 -0.5 6.4 0.9 8.5 0.9 1.2 1.5 -5.2 0.8 -7.1z m52.4 6.2 c0 -1.8 -1.7 -2.4 -4.8 -1.8 l-2.3 0.5 2.3 1.2 c3.1 1.8 4.8 1.8 4.8 0.1z m13.5 0.5 c-1.1 -1 -14.1 -6.1 -15.7 -6.1 -2.2 0 0.1 2.5 2.4 2.7 1.4 0.1 4 1.1 5.9 2.2 3.4 2.1 9.2 3 7.4 1.2z m17.2 -4.9 c1.9 -1.2 0.5 -4.7 -2.6 -6.5 -2.8 -1.7 -15.2 -4.2 -17.2 -3.5 -0.7 0.2 1.4 2 4.7 3.9 12.5 7.3 13 7.4 15.1 6.1z m-49.7 -2.4 c1 -0.6 -0.1 -0.8 -3.2 -0.6 -5.5 0.4 -6.2 -0.5 -1.7 -2.1 4.1 -1.4 11.7 -1.4 15.8 0 4.5 1.6 4.8 0.5 0.6 -2 -3.4 -2 -4.3 -2.1 -13.6 -1.2 -6.1 0.6 -11 1.6 -12.5 2.6 -2.3 1.5 -3.1 3.5 -1.8 4.8 0.9 0.8 14.6 -0.4 16.4 -1.5z m11 1.2 c0 -1.1 -4.8 -2.5 -5.7 -1.6 -0.3 0.3 0.5 1 1.8 1.5 3.2 1.3 3.9 1.3 3.9 0.1z m-31.3 -4 c1.4 0 3.9 -1.2 5.7 -2.7 l3.1 -2.6 -3 0.7 c-2.2 0.5 -2.6 0.4 -1.5 -0.4 2 -1.3 7 -1.3 12.3 0.2 2.6 0.7 5.2 0.8 6.3 0.3 1.8 -0.8 1.7 -0.9 -0.4 -1.2 -1.2 -0.3 -2 -0.8 -1.7 -1.3 0.9 -1.5 -10.2 -2.3 -15.2 -1.1 -2.6 0.7 -7.5 1.1 -10.8 1 -6.1 -0.3 -9.9 1.1 -11 4 -0.4 1.1 0.2 1.2 3 0.8 3 -0.5 3.5 -0.3 3.5 1.5 0 1.3 0.5 1.8 1.4 1.5 0.8 -0.3 1.7 0.1 2 0.9 0.5 1.4 0.8 1.4 2.2 0 0.8 -0.9 2.7 -1.6 4.1 -1.6z m9.8 -12 c1.1 0 1.5 -0.3 1 -0.9 -1.4 -1.3 -11.9 -2.1 -13.6 -1 -1 0.6 -0.8 0.9 1.1 0.9 1.4 0 3.2 0.5 4 1 0.8 0.6 2.4 0.8 3.5 0.5 1.1 -0.2 2.9 -0.5 4 -0.5z m0.4 -6.1 c-1.7 -1.1 -5.6 -1.1 -8.9 -0.1 -2 0.6 -1.4 0.8 3 1.2 6 0.6 8 0.2 5.9 -1.1z m15.6 -3 c-5.7 -1.1 -11.7 -1.1 -11 0.1 0.3 0.6 3.9 0.9 7.8 0.9 6.5 -0.1 6.8 -0.2 3.2 -1z m-14.1 -2 c0.4 -0.3 -3.1 -0.9 -7.7 -1.3 -6 -0.5 -9 -0.3 -10.8 0.6 -2.2 1.1 -1.2 1.3 7.7 1.3 5.6 0 10.5 -0.3 10.8 -0.6z"/>
  <path d="M132.3 252.9 c-0.7 -0.7 -1.3 -2 -1.3 -2.8 0 -0.9 -0.9 -2.9 -2.1 -4.6 -2.7 -4 -7.1 -13.7 -6.4 -14.3 0.3 -0.3 2 0.8 3.8 2.5 6 5.6 11.5 7.9 23.5 9.8 6.1 1 11.2 2.1 11.2 2.5 0 0.4 -1.9 1.3 -4.2 2 -2.4 0.8 -5.9 2.1 -7.8 3.1 -4.8 2.3 -15.1 3.4 -16.7 1.8z"/>
  <path d="M222.5 145.8 c-0.4 -0.9 0.2 -3.6 1.3 -6 l2 -4.3 0.1 4.1 c0.1 4.7 -2.3 9.1 -3.4 6.2z"/>
  <path d="M170.5 72.9 c-0.7 -1 -0.6 -1.1 3.2 -1.2 1.5 -0.1 2.8 0.4 3 0.9 0.4 1.3 -5.4 1.6 -6.2 0.3z"/>
  <path d="M80.5 330 c1 -1.1 2.4 -2 3.2 -2 1.1 0 1.1 0.4 0.3 2 -0.6 1.1 -2 2 -3.2 2 -2 0 -2.1 -0.1 -0.3 -2z"/>
  <path d="M276.3 331.3 c1.1 -1.7 7.7 -4.5 9.2 -3.9 0.8 0.3 4.5 -1.4 8.2 -3.6 3.7 -2.3 11.1 -6.3 16.3 -9 5.2 -2.6 8.6 -4.8 7.5 -4.8 -2.2 0 -4.5 -1.7 -4.5 -3.3 0 -1.2 7.3 0.2 8.2 1.6 0.5 0.8 1.3 0.5 2.7 -0.7 2.1 -1.9 2.1 -1.9 2.1 0.5 0 2.5 -4.4 5.4 -11.4 7.5 -5.8 1.8 -2.2 4.1 6.7 4.3 4.1 0.1 4.7 0.4 4.7 2.2 0 1.4 -0.5 1.9 -1.4 1.6 -0.7 -0.3 -4.9 -0.8 -9.2 -1.2 -7.2 -0.6 -8.3 -0.4 -12.8 1.9 -2.7 1.5 -5.7 2.6 -6.5 2.6 -0.9 0 -3.3 1.1 -5.3 2.5 -3.8 2.6 -9.5 3.5 -8.2 1.3 0.5 -0.8 0.2 -0.9 -1.2 -0.4 -3.8 1.6 -5.7 1.9 -5.1 0.9z"/>
  <path d="M295 330 c1 -1.9 5 -2.9 5 -1.2 0 1.4 -2.4 3.2 -4.2 3.2 -1.6 0 -1.7 -0.3 -0.8 -2z"/>
  <path d="M306.5 330 c1 -1.1 2.1 -1.7 2.5 -1.5 0.5 0.3 4.4 0.6 8.9 0.7 6.1 0.1 8.1 0.4 8.1 1.5 0 1 -2.4 1.3 -10.7 1.3 -10.5 0 -10.6 0 -8.8 -2z"/>
  <path d="M282.6 321.7 c1.5 -5 8.4 -9.2 8.4 -5.2 0 0.8 0.5 1.5 1 1.5 2.4 0 -3.1 4.2 -6.4 5 -3.5 0.8 -3.6 0.7 -3 -1.3z"/>
  <path d="M297.5 316 c0.5 -1.6 0.2 -2 -1.5 -2 -3.1 0 -1.5 -1.7 2.2 -2.3 1.8 -0.4 4.8 -0.9 6.7 -1.3 2.6 -0.5 3.2 -0.4 2.6 0.6 -0.6 0.9 -0.1 1 1.6 0.5 1.3 -0.4 2.1 -0.4 1.7 0 -0.4 0.4 -2.6 0.9 -4.8 1.1 -5.1 0.4 -6 1 -6 3.5 0 1.1 -0.7 1.9 -1.6 1.9 -1.1 0 -1.4 -0.6 -0.9 -2z"/>
  <path d="M303 296.1 c0 -0.5 2.5 -2.7 5.6 -5.1 4.2 -3.1 5.8 -3.9 6.8 -3.1 1.6 1.4 4.2 -1.2 3 -3 -0.8 -1.4 0.5 -0.7 4.9 2.5 2.4 1.8 3.9 6.6 2 6.6 -0.5 0 -3.7 -0.5 -7.3 -1 -6 -0.9 -6.6 -0.8 -9.6 1.5 -3.4 2.6 -5.4 3.2 -5.4 1.6z"/>
 </g>
</svg>