<?xml version="1.0" encoding="utf-8"?>
<!DOCTYPE svg PUBLIC "-//W3C//DTD SVG 20010904//EN" "http://www.w3.org/TR/2001/REC-SVG-20010904/DTD/svg10.dtd">
<svg version="1.0" xmlns="http://www.w3.org/2000/svg" width="326px" height="332px" viewBox="0 0 326 332" preserveAspectRatio="xMidYMid meet">
 <g fill="none" stroke="#000000" stroke-width="1">
  <path d="M120.5 13.5L139 13.5M143 15.5L155.5 16M113.5 27.5C118 23.5 122.5 18 128.5 16.5M161.5 17.5C173.5 17.5 186 23 196.5 28.5C200 30 206 33 207 37.5C207.5 43 201.5 39.5 200 38M128.5 19L138 19M107.5 33C108 31 107.5 28 108.5 26.5C110.5 23 117 20 121 20M177.5 21L174.5 23M140 21.5L164 23L171.5 27L184.5 29M124.5 23L138 24M159.5 23.5C160.5 26.5 161 30 157.5 30.5M154 27L159.5 27M99.5 51.5C100 48 102 46 103 43C104.5 38 102 30.5 107.5 27.5M114 33L125.5 33L134 29.5L150.5 31.5M161 30.5L182.5 42.5L193.5 52L210 58.5M129 32.5C131.5 34 133 33 135.5 32M180 33C185.5 34 191 36.5 195.5 39.5M134.5 39C144 34.5 151.5 33 161.5 36.5M138 38C141 40.5 144.5 40 148 39M207.5 39C214 46 221.5 53 226 61.5C231.5 72 232 86.5 230 98C229 103.5 227.5 108.5 225.5 113.5C225 115 224 118.5 221.5 118C217.5 118 217 111.5 215.5 108.5C213.5 104.5 210.5 103.5 208 100.5C205.5 98 205 95 202 93M154.5 39.5L158.5 40.5M113.5 41L114 47M166 42L180 47M103 44C106.5 50.5 105 61 112 65.5C115.5 67.5 116.5 65 119.5 64C122 63 125.5 63.5 128 63C129.5 62.5 131 61 133 61C136.5 60.5 140.5 63 144 64.5C147 65.5 150.5 65.5 153.5 67C155.5 68 157 70 159 71.5M160.5 45L165.5 46M153 45.5C152 49.5 143.5 51.5 140 53.5M191.5 48.5L195 49.5M164 53.5C174.5 53 184.5 55 194.5 59M97.5 54.5C97 57.5 91.5 67.5 95.5 70C97 70.5 99 69.5 100.5 69.5C103 69.5 104.5 71 106.5 72L106.5 72.5L106 73L105.5 73.5L105 74L104.5 74M178 55.5C181.5 62 187 62 193 63.5C198.5 65 204 67.5 209.5 67.5M96.5 60.5L98 62M162.5 61L167 61M154 66.5L162.5 64M115 67C114.5 72.5 110.5 76.5 107 80.5C106 82 103.5 84 103 86C102.5 89.5 104 93 104 96.5C104.5 104 104.5 111 104 118.5C104 122 101.5 124 100.5 127C99.5 132.5 100 138.5 99.5 144C99 153 100 163.5 103 172C103.5 174 105 175 105.5 177C107 181.5 107.5 186.5 109 191C112.5 201.5 115.5 212.5 121 222C122 223.5 122 226 123 227.5C124.5 229.5 128.5 229 131 231C132.5 232.5 132.5 234.5 134 236C139.5 241 148 242 155 242.5C157 242.5 163.5 244.5 165 242C167.5 239 164 231 164 227.5M163.5 75.5C167 75 167 72.5 169 70.5C172 67.5 177 68.5 180 70.5L177 76L182.5 76.5M180 70.5L188 74.5M162.5 72L167.5 73M167.5 74C170.5 76 173.5 76 177 76M93 77L100.5 84C96 86 91.5 81.5 90.5 77.5M192 83L192.5 83M101 84L103 85.5M136.5 84C144 84 151.5 83 159 84C163.5 85 168 87 172.5 88C175.5 89 179 88.5 182 90C187 92 192.5 103.5 198 99C201 101.5 204 103.5 207.5 101M194 91.5L198 98.5M204.5 92L203.5 94M118.5 107L116.5 111M201 116.5L204 118M222 119C222 122.5 221 128.5 223 132C223.5 133.5 226 133.5 227 134.5C228.5 136.5 227.5 140.5 227.5 142.5C227.5 147 223.5 149.5 222.5 154C222 158 222 162.5 221 166.5C220 170.5 217 173.5 215 177.5C211.5 186.5 208.5 196.5 204 205C203 207.5 200.5 208.5 199 211C198 213 198 216.5 196.5 218.5C194 221.5 190 223 187 225.5C185 227.5 184.5 230.5 183 232.5C179.5 237 174.5 238 174.5 231.5M118.5 141C117.5 138 115.5 136 112.5 137.5C109 132.5 112 125.5 118 124.5C127 123.5 139 126 147 130M172 130.5C175.5 128.5 178.5 130.5 182 130.5C191 130.5 204 128.5 210.5 136M222 133C221.5 139.5 218.5 146 223 151.5M116.5 136L122 135L128.5 138L136.5 135.5L142.5 141L149.5 142.5L150.5 157M112.5 138L115 144.5M150.5 138L149.5 142.5M169.5 169.5C164.5 165 166.5 155 167 149C167 147 166.5 144.5 168.5 142.5C170 140.5 173 141 175.5 141C177.5 141 179 139.5 181 139.5C185 139.5 186 144 187.5 147C193.5 144.5 194.5 141.5 201.5 145.5C202 143 200.5 141.5 198.5 140.5M176.5 142L178 147M201.5 145.5C199.5 156.5 185.5 154.5 178 152.5M122 147.5C127 148.5 131 149.5 136 148.5M111.5 151.5L110 154M105 158C105 163.5 108 170 105.5 175M143 165C141.5 168.5 138.5 172 138 176C137.5 180.5 143.5 179.5 146 182C148.5 184 147.5 188 151 189.5C154 190.5 157.5 190 160.5 190C165.5 191 170.5 192.5 175.5 194.5C177.5 195 180.5 195.5 182.5 197C185 200 184.5 207 184.5 210.5M164.5 182.5L171 182.5M148.5 188C145 191 141 191 136.5 190M130.5 193.5C133.5 198 138 197.5 143 198.5C155 201 167.5 200.5 179.5 201.5M168.5 202C168.5 205 169.5 205.5 172.5 205.5M141.5 202.5L145.5 205M168.5 205L164 207M127 214C126.5 218.5 125 219.5 122 222.5M147 216L169 215.5M183 215.5C182.5 220 183.5 222 187 225.5M197 219C201.5 223.5 204.5 229 204 235.5M90 221.5L94.5 221M74.5 223.5L77 223.5M106.5 223.5L101 235M112.5 223.5C109.5 228.5 109.5 234.5 108.5 240.5C107.5 243.5 106 245.5 106.5 248.5C108 259.5 117.5 271 127.5 275C131.5 276.5 137 276 141.5 276.5C160 279 180 277.5 195 265C197 263.5 199 262 201 260C209.5 252 226 233 208.5 226.5M62 224L58 225M41.5 226L47.5 226M122.5 228C116.5 235 123.5 243 127 249C128.5 251.5 128 255 131 256.5C133.5 257.5 136 256.5 138.5 256.5C147 256 159.5 251.5 164 244M131.5 230.5C134.5 228.5 139.5 229 143 230M4 232.5L6.5 232M96 234.5C92.5 247.5 78 257 69 266C65.5 269.5 61.5 275.5 56 276.5L59.5 264.5L61.5 258L73 247.5M20.5 235C33 235 47 233.5 59.5 236.5C63.5 237.5 67.5 237.5 71 240.5L62.5 246M225 235.5C225 242.5 222 242.5 218 247C215.5 249.5 213.5 253 211.5 256M175.5 237C172.5 240 170 241.5 166 242M23 239L17 242.5M75 245.5C79 239.5 87 239.5 94 239M101 239.5L100 241M71.5 240.5L77.5 241.5M52 240.5L50.5 249L43.5 266L48.5 264.5M1.5 242.5L13 241.5M215 292.5C221 285.5 224 275.5 227.5 267.5C229.5 264 231 259.5 229 255.5C233.5 250.5 234 242 241.5 242M195.5 244.5L190 250M95.5 246.5C92 255 84.5 260 78.5 266.5C74 272 72 278.5 67 284M40.5 249.5C38.5 252.5 36 258 33 260C30 261.5 27 259.5 24.5 261.5C14.5 270 11 285 14 297.5M17 250.5L14 259.5L18 257.5M256 250.5C253 252.5 243.5 258 245 262.5C245.5 265 250.5 264 252.5 264C260.5 264 268.5 265.5 275 261M267.5 252L277 251M7 252L3 255M23 254L24.5 253M31 253.5L27.5 260M101.5 254.5C104.5 259 110 273 116.5 269.5M186.5 332C187.5 315.5 193 298 199 283C201 278 203.5 270 208 266.5C210.5 264.5 214 267.5 217 265.5C221.5 262.5 223 256.5 229 255.5M99 258.5C100.5 266.5 92 275.5 87 281C81 288 72 291 65.5 297.5C61 302 60 308.5 56 313.5C52 318 46 322 44 327.5M14.5 260L10.5 270M32.5 261L28.5 276L22 296.5M244 263.5L234 285.5L232 297.5M4 264L1.5 266M280.5 299.5C283 296.5 285.5 292 289 290C290.5 289 294 288.5 294 291C294 294.5 289.5 297.5 287.5 300C282 307 279 316.5 270.5 321C268.5 314 272 309.5 274.5 303.5C278 294 282 284.5 287.5 275.5C288.5 273 289.5 270 291.5 267.5C293.5 265 298 264.5 301 264M43.5 266L33 289L29.5 294L26.5 302.5M52.5 267L49.5 270.5M283 267C277 277 272 286 271 298C270.5 301.5 269 305 271 308.5M320.5 267L318 269M113 270.5L109 283.5L97 298.5L85.5 325C86.5 327.5 85.5 329.5 84.5 332M260 273L254 287M47.5 273.5L45.5 280.5M300 278.5L296.5 274.5L302.5 274.5M3 274L2.5 275M265.5 276L265.5 278M56 276.5L52 281.5M130 276.5C132.5 280.5 135.5 282.5 140 282.5M65 278.5L56.5 293.5L44 315M172.5 282L178.5 281M294 281.5L293 282M325.5 296.5L315.5 295L300.5 299.5C302 293 308 288.5 313.5 285C315 284.5 316 282 318 282C321 282 323.5 285.5 325.5 287M321 283C319 285 317.5 286.5 315 284.5M3.5 286L0.5 294M124.5 287C122 294.5 110 299.5 110.5 307.5C110.5 310.5 114.5 309 116 308C122 304.5 128 301 134 297M223.5 293.5L233 287.5M45.5 295C49 292.5 53 289 57.5 288.5M131 288.5L131.5 289M263 288.5L259.5 304.5L257.5 332M181.5 290L175.5 297.5M244 292.5L245.5 292M254 292C250.5 298.5 253 299.5 259 301M87 292.5L72.5 306M141 293.5L142.5 292.5M151.5 292.5L156 292.5M208 292.5L206 294.5M162.5 298L161.5 298.5M294 304L300 300M5 300.5L9.5 332M212.5 300.5L210.5 306.5M252.5 301L250.5 307M243.5 301.5L241 304M97.5 332C102.5 332 107 327.5 111 324.5C118 320 125 317 132 312.5C137.5 309 140 305 147 305M274.5 332C280 325 289.5 326.5 295 319.5C299.5 321 301.5 317 305 315.5C307 314.5 310.5 314.5 311.5 312.5C313 310.5 310 308.5 312 307C315 304 321.5 305 325.5 305M156.5 306L156 306.5M14.5 308C16 312.5 16.5 317 16 322M227 308L227.5 310.5M266.5 309L270.5 309.5M295 319.5C294.5 317.5 292.5 316 292.5 314C293.5 309 307 308 310.5 308M110 308.5C105 312.5 95 327.5 87 324M290.5 308.5C286 312.5 281 319 281 325.5M41 310C36.5 317 33 324 30.5 332M249 310.5L247 314.5M313 311.5L315.5 311.5M67 322L79 317L90.5 312M27 313.5L22.5 323.5M151.5 314L147 319M287.5 314.5L292 314M202 315L200.5 322.5M313.5 318L325.5 316.5M170 317L166.5 327M58 320L54.5 326M270.5 321L267 332M66.5 332L74 331.5L85.5 325M302 332C302.5 323 319.5 327 325.5 327M291 332C294.5 329.5 298 326.5 302 329M199 330L199 332"/>
 </g>
 <g fill="none" stroke="#ffffff" stroke-width="1">
  <path d="M127.5 21C132.5 21 138 20 140.5 25.5C136.5 27 131.5 27.5 127 27C125.5 26.5 123 27 123 25C122.5 22 129 17.5 131 16L118.5 16L111 9.5C115.5 5.5 121 6 127 6C139.5 6 152.5 7.5 165 8.5C198.5 11 233.5 14.5 263 33C277 41.5 287.5 53.5 299 65L317 83C319.5 85.5 323.5 88.5 325 91.5C327 95.5 325.5 103 325.5 107.5L325.5 146L325.5 284M146.5 7.5L141.5 13L137.5 21.5M164 8.5C162 10.5 157 14 158.5 17.5C160 20.5 167 20 170 21.5C171.5 22 172.5 23.5 174 24C176.5 25.5 179.5 25 182 26C184.5 27 186 29 188.5 30.5C191.5 31.5 195.5 32 198 34.5C200.5 38 199.5 42.5 199.5 46C186 42 175.5 32.5 163 26.5M105.5 73C102.5 73.5 99 77.5 95.5 76.5C91 76 87 69.5 84 66.5L55.5 38C61 32.5 66.5 30.5 72.5 26.5C77.5 23.5 81 19 86 16C93.5 12 103 10.5 111 9.5M131 16L140 16M158 17.5C153.5 20 145.5 19 141 18M122 26.5L111.5 30C112 25.5 116 23 119.5 21M140.5 25.5C151.5 26.5 157 33 165.5 38.5C170 41.5 176 42 180.5 45C182.5 46.5 182 48.5 183.5 50C186 52 190 53 192.5 54.5C198 58 209 66 215.5 62C217.5 65 219 71 218.5 74.5C218 77 216 79.5 216 82C216 85 218 87.5 218.5 90C220.5 97.5 222 104 220.5 112M151.5 27.5L157.5 25.5M72 27.5L91.5 47C94.5 50 98.5 53 100.5 56.5C102 58.5 103.5 62 102.5 64C101.5 66.5 98 66.5 96.5 64.5M187 29.5L176 32.5M107 30L109.5 37.5C115.5 34.5 116.5 39.5 119.5 43.5C120.5 45.5 123.5 47 122.5 49.5C121.5 55 114 54.5 111.5 51C108.5 47.5 109.5 41.5 109.5 37.5M154 30C148.5 35 143.5 31 137.5 33C130 35.5 128 42 123 47M111 30.5L109 35.5M132 32L137.5 32.5M199.5 35.5L203 38.5M141 38L149 38L152 41.5L156.5 44L158.5 50C161.5 49 165 50.5 168 49C170.5 48 167.5 44.5 166 44C164.5 43 163 42.5 161.5 41.5L157.5 44.5M151 38.5C155 36.5 159.5 37.5 161.5 41.5M197.5 231.5C195.5 238.5 189 240 184.5 244.5C181.5 248 181 253 177.5 256C166.5 264.5 151 267 137.5 265.5C133 265 126.5 264.5 123 261.5C119.5 258 113.5 248 113.5 243C114 237.5 117.5 226 113.5 221C111.5 218.5 107.5 217 104.5 214.5C90 202.5 72.5 194 59 180.5C56 177.5 51.5 174.5 49.5 171C46.5 166.5 48.5 156 48.5 151C48.5 137 44.5 124 44.5 109.5C44.5 89 43 68 44.5 47.5C45 43 51 38 55.5 38M164.5 38L161.5 40M158 50.5C157.5 58 144 60 138 57.5C135 56 131.5 52 129.5 49L150.5 42M199.5 46C206.5 51.5 213.5 51.5 215.5 62M200 47C198 49 196 51.5 193 50M101.5 47.5L100 55M169.5 47.5L182 50M123.5 49L129.5 49M156.5 55.5L165.5 64.5L170 59L158.5 57.5M182 57C186 59.5 193.5 62 197.5 58.5M170 59C183 61 194 71.5 203 80C201 82 198.5 85 196 86.5C194.5 87.5 191 86 190 88C188 90.5 193 96 194.5 98M103 64.5C105 66 109.5 68 110.5 69.5C112 73 104 75.5 102 74.5M165 65C164 67.5 162 68 161 69.5C159.5 72 160.5 74.5 157.5 76C149.5 81.5 137 72.5 129 76C125 77.5 126 87.5 124.5 91C123 95 117 96.5 114 99.5C110.5 104 111 111.5 111 117C115.5 117 122.5 117 126.5 115C131.5 112.5 135.5 106.5 139.5 102.5L124.5 92.5M171 73L176.5 73.5M157.5 77L164 74M180 74.5C183.5 76 183.5 80 186 81C188.5 82 195 76.5 196.5 75M92 75L94 80M94.5 77L93 78.5M159.5 77.5C164.5 81.5 181 85 187 82M203 80L215.5 80.5M205 81C198.5 87.5 198 92 204 99.5M186 83L189.5 88M140 103C145.5 103.5 150.5 106 156 107.5C160 108 164 107.5 168 108.5C173 110 179 113 184.5 113C187.5 113 188.5 110 191 109C194 107.5 203.5 108.5 206.5 110C211.5 112.5 212 119.5 212 124.5C206 123.5 199 125 193.5 121.5C190.5 119.5 188 116.5 186 113.5M157.5 108C159 112.5 161.5 119 159 123.5C157.5 126 155 128 153 130C151 132 149 135 146 135C143 135 140 133 137.5 132.5C131.5 131 122 129.5 116 131M111 117C105.5 125 105.5 137 106 146.5C106 149.5 105 152 106 154.5C109.5 160.5 117 163.5 121.5 168.5C123 170.5 122 173.5 123.5 176C127.5 182.5 133.5 185.5 141 185.5M159.5 124C162 128 164 132 168.5 134.5C173 137 180 135.5 185 136C191 137 194 139 199 142M212 124.5C215 128.5 216.5 135.5 215.5 140.5C215 142 213.5 143.5 213 145C212.5 147.5 213.5 149.5 213 152C211.5 156.5 207.5 161.5 204.5 164.5C201 168 196.5 169 193 172C191 173.5 190.5 176 189 178C186.5 180.5 183.5 184.5 180 186.5C175.5 188.5 167.5 186.5 162.5 185.5C157 183.5 157.5 177 156 172.5C154 168 146.5 158 141.5 156.5C137 155 127 160.5 124.5 164C123.5 165 123 167 122 168.5M161 128.5C159.5 137.5 158.5 146 158 155C157.5 160.5 158.5 165 154.5 169M225.5 137L224 145M136 137.5C136 139.5 135.5 142 136.5 144C137 145.5 139 145.5 140.5 146.5C143.5 149.5 142.5 152.5 141.5 156M195 137.5C202.5 137.5 207 139.5 212.5 144.5M191.5 138L190 142M121 140.5C121.5 148 130.5 146 135.5 145M117 141.5L121 144.5M181.5 143C181.5 144.5 181 147.5 181.5 149C184.5 155 192.5 150.5 196 148M119.5 144.5C119.5 148 119 150 116.5 152.5L124 163.5M106.5 147.5C111 147.5 113.5 149.5 116.5 152.5M181 149C179.5 150 174 151.5 172.5 150M325.5 149C320 154.5 314.5 161 308 166.5C303.5 170 298 172.5 293.5 176C274 193 256 211.5 237.5 230C235.5 232 232.5 234.5 231 237C230 239.5 229.5 242 228 244.5C226 247.5 222.5 249 220.5 252C219 254 216 260 213 259.5C210.5 259 210.5 256 211.5 254.5C214 249.5 218 244.5 220.5 239.5C221.5 237 221 234 222 231.5C224 227 229.5 223.5 233 220C237.5 215.5 242.5 209 248 205.5C253.5 201.5 263 198.5 269.5 197M173 151.5C173 159.5 177.5 159.5 183 163.5C186.5 166.5 189 169.5 192 172.5M105.5 154C101.5 159 104.5 166 104.5 172M325.5 163.5L280 209C273 216 264 223 258 231C255.5 235 263.5 239 265 242C266 244 264 246 263.5 248C261.5 253 264 256 258.5 259M48.5 171C47 172.5 44.5 174.5 44.5 176.5C45.5 180 52 184.5 54.5 187C63 195.5 72 204 80.5 213C85 218 81.5 224 85.5 228.5C87 230.5 89.5 229 91.5 228.5C93.5 228 95.5 228.5 97 227C101 224.5 100.5 218 103.5 214.5M157.5 175C165 179.5 180 177 189 177M123 176C117.5 182 117 196 123 202C126.5 205.5 129.5 204 133 206C134.5 207 134.5 210 135.5 211.5C140.5 207 147.5 212 153 207C146 200 141 199 134 206M44 176.5C42 178.5 36.5 182 36.5 185C36.5 187 39 188.5 40 189.5L49.5 199L62 211.5C64 213.5 67 215.5 67.5 218C69 221.5 68 227 68 231C62.5 231 57 229.5 51.5 229.5C47.5 230 41.5 231 38 229.5C30 225.5 26.5 216 20.5 210C15 215.5 5.5 222 2.5 229C-0.5 235 6 240 11.5 236C15 234 13 231 14.5 228C16.5 224 21.5 220 24.5 217M191.5 177C193 180 195 182.5 195.5 186C196 191.5 193 196 191.5 201C190 205.5 189 210 186.5 214C185 213 180 210 178 210.5C175 211.5 176 217.5 175 220C174.5 223 171.5 223 170.5 225.5C168.5 229 170 233.5 168 237M36 185.5C32.5 189 30 193 27.5 197C24 201.5 20.5 204 20.5 210M135.5 186C131.5 193 139 194 144 194.5C149 195.5 154 194.5 159 195C162 195.5 165 197 168 197.5C171.5 198 176 198 179 200C182 202 178 206.5 178.5 210M28 197L44.5 213.5L51.5 221.5L52 229M170.5 203C173.5 203 175.5 204.5 177.5 206.5M179 255.5C187.5 263.5 196 250.5 201.5 246C204 244 207 244 208.5 241.5C210.5 238.5 211.5 234.5 209.5 231.5C208.5 229.5 205.5 226.5 206.5 224C207.5 220.5 211.5 218.5 214.5 217C221.5 213 229 209.5 236.5 206.5C240.5 205 243.5 202.5 248 205M176 213C170.5 208.5 163.5 212.5 158.5 207.5L163.5 204.5M126.5 205C123 208.5 123.5 210.5 123.5 215M153.5 207.5L158.5 207.5M135 212C135 225 149 218.5 153.5 228C154.5 230 152.5 231.5 151 233C147 237 143 237 138 233.5M325.5 212.5L282.5 258C277.5 253.5 269 257.5 263 257.5M135 217C132 220 129.5 224.5 125.5 221.5M111 219.5L103.5 240L99.5 248.5L103.5 253.5L113 267.5M154.5 228C159 223.5 165 220 171 224M96.5 228L99.5 236L104 238M87 230C81.5 234 75 231.5 68.5 231.5M14.5 233C18.5 237 20.5 235.5 25 237.5C27.5 238.5 28.5 241 31 242C33 243 38.5 242.5 40.5 242C44 241 47 238 51 238C54 238 56 240.5 59 241C61.5 242 64 241 66.5 240.5M123.5 233.5C127.5 238 132 245.5 137.5 248C143 250 153 247 159 247M257 233.5C253 237.5 250 241.5 246 246C245 247.5 243 248.5 241.5 250C238 255.5 236.5 262 234.5 268C232.5 273 229 277 227 281.5C224.5 286 222 290 220.5 294.5C220 295.5 218.5 297.5 219 299C221 303.5 227 296.5 228 295M13 235.5C15 238 16 240 14.5 243C14 244 13 245.5 13 246.5M98.5 237C97.5 240.5 97.5 243.5 94 245.5C95.5 247.5 97 249.5 99.5 249.5M193.5 238.5L201 246M59 241.5L59 249L71 245.5L77.5 248.5L82 245.5L90 241.5M41.5 242C45 245.5 44.5 249.5 42.5 254C40.5 259 37.5 264 35.5 269C32.5 275.5 31 282.5 28 289C26 292.5 25 300 21 301.5C18 302.5 18 298 18 296.5C18 290.5 19.5 284.5 21.5 279C23 274.5 25 270.5 27.5 266M31.5 243C30.5 246.5 33 247.5 33.5 250.5C34 253 31.5 256 29.5 257.5M97 244L99.5 246.5M31 247C28.5 249.5 27 255.5 23 256.5C19.5 257.5 20 250 21.5 248.5C23 246 28 246 30.5 245.5M12.5 246C11 255.5 3 265 8.5 275C14 272 19.5 263 21.5 257M94 246C85.5 255 69.5 265 67 277.5C66.5 280 63 285 65 287.5C67.5 290.5 74 283 75 281.5C79 277 82 272.5 85.5 268C90 263 96 257.5 98.5 251M325.5 246C320 251.5 314 256 310.5 263C309 266.5 309 271.5 308 275C307 279 304 281 302.5 284.5C301.5 286.5 301 288.5 300 290.5C294 300 286 307.5 279.5 316.5C278 319 277.5 321.5 276 324C274 327 271.5 329 270 332M3.5 246.5L12 246.5M13 246.5L22 247.5M59 249C56 252.5 53.5 256.5 53.5 261.5C54 264.5 55 266 54 269C53 271 51.5 273 50.5 275C49 277.5 49 280.5 47.5 282.5C46 285 43 287 41.5 289.5C39 293 38.5 298.5 38.5 302.5C44.5 300 51 296.5 55.5 291.5M77.5 249L58 274.5M98 253.5C102 257.5 106.5 267 104 273C101.5 280 94 285.5 91 292.5C87 300.5 81 315 69 312C65.5 311 67.5 305.5 69 303.5C72 298.5 85 287.5 91 292M282.5 258C281.5 262 275.5 270 271.5 271C269 272 265.5 269.5 263.5 272.5C262 274 260.5 282 262.5 283.5C263.5 284.5 265.5 284 267 284L264.5 307.5L264.5 317L262 332M282.5 260C289.5 267 283 275 279.5 282.5C276 290 274 297.5 271.5 305.5M1.5 262L7 260.5M88 332C91.5 331.5 93.5 328.5 96 327C102 323 108.5 319 114.5 315C119.5 312 124.5 309.5 129.5 306C133 304 136.5 300.5 140.5 299.5C145 297.5 150.5 301.5 155.5 299.5C159 297.5 160.5 292 165 290.5C169.5 288.5 169 294 169 296.5C169 303 169 307 176.5 307C178 307 179.5 307 180.5 306.5C187 301.5 186 290.5 188.5 284C189.5 280.5 193.5 277.5 196 275C201 269.5 204.5 263.5 211.5 260.5M227 260.5C224 264 222.5 268.5 219.5 271.5C217 273.5 213.5 274 211.5 277C209.5 279.5 210 282.5 208.5 285C207.5 286.5 205 287 203.5 288.5C201 291.5 200 299 202.5 302C208 297 217 293.5 209 285.5M47 263.5L53 263.5M51.5 264C50.5 266.5 52.5 267.5 54 269M50.5 266C48 269 47.5 270.5 50.5 273.5M2 269.5L6.5 267.5M261.5 283.5L257.5 290C255 289.5 252 290 250 288.5C245.5 284.5 248 273 253 269.5C255.5 268 263 267 264 270.5M279 298.5C279 301.5 279.5 303 282.5 301.5C277 293.5 287 284 292 277.5C293 276 293.5 273 295 271.5C298.5 269.5 305.5 270 308.5 272.5M50 275.5C48.5 274 46.5 272.5 47.5 270.5M46.5 272C43.5 276 41 281.5 44.5 285.5M271 272.5L267 284M325.5 273C321 276 314 274.5 309 274M8.5 275C7.5 280 5 278 2.5 281C1 282 1 285 0.5 287M46 284.5C53.5 290 60.5 276.5 67 275M298.5 275L306 280M116 276.5C120 279.5 120.5 283.5 118 287.5C115 292.5 110 295 106.5 299C101 305 98 312.5 93.5 319M292.5 277C296 279.5 298.5 283.5 302.5 283.5M184 283C182 285 173.5 289 171 286.5C166.5 282 176 279 179 279C182.5 279.5 184.5 283 188.5 283M134.5 279.5C137 280 147 282 144.5 286.5C143 288.5 139 286.5 137.5 288.5C136 289.5 136.5 291 135 292C133.5 293 131 293 129.5 293.5C127.5 294.5 126.5 296.5 125 297.5C121 300.5 117.5 302 114 306M8 280L8.5 293L3.5 296.5L1 302.5L2.5 314.5L3.5 332M121 282C126.5 284 133 284 137 288M288.5 282C292 285 295.5 286 299 283M129 284.5C127.5 287 127.5 291 129 293.5M193 332L195.5 322C199 325.5 202.5 326 206.5 328C208 329 209.5 330.5 211 331.5C214 333 224 333 227 331C230 329 235 325 236.5 321.5C237.5 319.5 237 317.5 238 315.5C242 310.5 249.5 307 249 299.5C248.5 294 241.5 299 240.5 295.5C238.5 290.5 243.5 287 247 285M145.5 285.5C151 285.5 159.5 286 164 290M145 287C148 290.5 146 295 145 299M172.5 287.5L168.5 290.5M64.5 289C59.5 297 55 306 49 313.5C46 317.5 40.5 319 39 324.5C38.5 326 38 329.5 39 331C40 332.5 42 332 43.5 332C47.5 332 55 333.5 58.5 331.5C59.5 331 60 328 61 327C68.5 332.5 81.5 319 87.5 314.5M250 289.5L248 296.5M257.5 290L257.5 294.5M304.5 296.5C312 290.5 316.5 290.5 325.5 292.5M136 291.5L140 299M292 292.5L282.5 300.5M9 295C9 298 10 300 10.5 303C11.5 309.5 10.5 318.5 13.5 324.5C14.5 326.5 18.5 332.5 21 331C30 327 29.5 315.5 33 308C34 306 37 304 38.5 302.5M212.5 296C215 296 216.5 296.5 218.5 298.5M240 296C234.5 301.5 231 309.5 237 316M156.5 299.5C161 303.5 165 307.5 171 307.5M289 312.5C297.5 303.5 313 300.5 325.5 300.5M224 300L233.5 305.5M220 300.5C218.5 307.5 219.5 312.5 214 318C211 315 206.5 307.5 202 306.5C195.5 305.5 195.5 318.5 195.5 322M151.5 301C151 303.5 150 308 152 310C154.5 312.5 159.5 313 160 317.5C160.5 321 157.5 330 154 331.5C151 333 145.5 332 142.5 332L116 332M19 301.5L11 302.5M39.5 302.5L43.5 307.5L42.5 319M202 302.5L202 306M20.5 303L21.5 308.5L32.5 308M279 303.5L273.5 316M290.5 305.5L292.5 307.5M248 306C252 310 256.5 316.5 251.5 322C249.5 324 247.5 324 245.5 325.5C243.5 327.5 241.5 330.5 238.5 331.5C235 333 230 332 226.5 332M166.5 307.5L160.5 316M179.5 307.5L177.5 325.5L175.5 331.5L169.5 332L154 332M314.5 308C323.5 311 316 313 312 316C310.5 317 310 319 308.5 320C303.5 323 297 324.5 292 327.5C289.5 328.5 286 329.5 285 332M320.5 311.5L325.5 309M21.5 309.5C20.5 315.5 21 323.5 16.5 328M136.5 332C137 324 142 311 150.5 309.5M254 309.5L253 311M296.5 314L310.5 312M49 332C49 321 59.5 318 67 312.5M299 314L299 316.5M62 317.5L61 327M214 318C214 324.5 217 327.5 221.5 332M288.5 319L284.5 322M310 320.5L325.5 323M277.5 332C280 330.5 282.5 329.5 285 331M83 330L81.5 332M296.5 332L298.5 330M307.5 332L325.5 331"/>
 </g>
</svg>