<?xml version="1.0" encoding="utf-8"?>
<!DOCTYPE svg PUBLIC "-//W3C//DTD SVG 20010904//EN" "http://www.w3.org/TR/2001/REC-SVG-20010904/DTD/svg10.dtd">
<svg version="1.0" xmlns="http://www.w3.org/2000/svg" width="326px" height="332px" viewBox="0 0 326 332" preserveAspectRatio="xMidYMid meet">
 <g fill="#3f3035">
  <path d="M0 327.5 c0 -4.1 0.2 -4.5 2.5 -4.5 2.3 0 2.5 -0.4 2.5 -4 0 -3.9 0.1 -4 3.4 -4 3 0 3.4 0.4 4 3.1 1.3 6.8 0.9 7.9 -2.9 7.9 -3 0 -3.5 0.3 -3.5 2.4 0 2.3 -1.6 3.6 -4.6 3.6 -1 0 -1.4 -1.3 -1.4 -4.5z"/>
  <path d="M263 328.8 c0 -1.8 0.5 -5.3 1.1 -7.8 0.6 -2.5 1.2 -7.4 1.4 -11 0.5 -11.3 2.2 -24.4 3.3 -27 0.6 -1.4 1.6 -4.3 2.1 -6.5 0.6 -2.3 2.5 -6 4.3 -8.3 2.6 -3.4 3.8 -4.2 6.6 -4.2 2.2 0 4.1 -0.8 5.8 -2.5 3.5 -3.5 9.4 -5 15.2 -3.9 4.7 0.9 4.7 0.9 4.7 4.9 0 4 0 4 -4.3 4.3 -4.1 0.3 -4.4 0.5 -10 9 -5.1 7.6 -11.8 20.3 -13.5 25.5 -1.2 3.3 1.1 1.7 4.7 -3.3 3.1 -4.4 4 -5 7.1 -5 3.2 0 3.5 0.2 3.5 3.1 0 3.3 -5 11.4 -13.1 20.9 l-4.7 5.5 4.4 -0.4 4.4 -0.3 0 3.7 c0 5.8 -1.5 6.5 -12.9 6.5 l-10.1 0 0 -3.2z"/>
  <path d="M290 329.5 c0 -1.4 -0.4 -2.5 -1 -2.5 -0.5 0 -1 -1.4 -1 -3.1 0 -3.3 2.2 -5.8 5.2 -5.9 1 0 2.6 -0.7 3.5 -1.5 1 -0.8 2.7 -2.1 3.8 -2.9 1.9 -1.5 1.9 -1.5 -0.7 -1.6 -2.5 0 -2.8 -0.4 -2.8 -3.5 0 -3.4 0.1 -3.5 4 -3.5 3.8 0 4 0.2 4 3 l0 3 3.6 -1.5 c2 -0.8 5.2 -1.5 7 -1.5 3.2 0 3.4 0.2 3.4 3.4 0 2.8 -0.4 3.5 -2.7 4.1 -3 0.7 -7.4 3.5 -5.5 3.5 0.7 0 1.2 1.4 1.2 3.5 0 3.3 -0.2 3.5 -3.5 3.5 -2.8 0 -3.5 -0.4 -3.5 -2 0 -1.7 -0.5 -1.9 -3.2 -1.3 -4.2 0.7 -3.9 0.4 -4.5 5.2 -0.5 3.9 -0.7 4.1 -3.9 4.1 -3 0 -3.4 -0.3 -3.4 -2.5z"/>
  <path d="M323 322 c0 -3.8 0.4 -5 1.5 -5 1.1 0 1.5 1.2 1.5 5 0 3.8 -0.4 5 -1.5 5 -1.1 0 -1.5 -1.2 -1.5 -5z"/>
  <path d="M80 320.5 c0 -3.3 0.2 -3.5 3.5 -3.5 3.3 0 3.5 0.2 3.5 3.5 0 3.3 -0.2 3.5 -3.5 3.5 -3.3 0 -3.5 -0.2 -3.5 -3.5z"/>
  <path d="M187.3 310.3 c0.9 -7.6 4 -22.3 6.1 -29 0.7 -2.1 0.4 -2.3 -2.6 -2.3 -5.2 0 -6.1 1.1 -5.3 6.3 0.4 2.5 0.4 5.5 0 6.7 -0.7 2.2 -0.7 2.2 -20.7 1.8 -21.3 -0.5 -21.8 -0.6 -21.8 -5.5 0 -1.6 -0.6 -2.3 -2 -2.3 -1.3 0 -2 0.7 -2 1.9 0 2 -2.5 3.1 -7.2 3.1 -2.5 0 -2.8 -0.3 -2.8 -3.5 0 -1.9 -0.4 -3.5 -1 -3.5 -0.5 0 -1 1.3 -1 2.9 0 5 -0.9 6.1 -5.1 6.1 -3.7 0 -3.9 -0.1 -3.9 -3.3 0 -4.1 1.5 -5.7 5.4 -5.7 3 0 2.9 0 -1.6 -2.9 -3.8 -2.4 -5.2 -2.8 -9.2 -2.4 -4.5 0.6 -4.6 0.5 -4.6 -2.3 0 -1.6 -1.2 -4.7 -2.5 -6.9 -2.3 -3.7 -2.7 -3.9 -6.5 -3.6 l-4.1 0.3 0.3 -4.3 c0.3 -4.2 0.4 -4.4 4.6 -5.2 4.1 -0.8 4.2 -0.9 4.2 -4.8 0 -3.9 0 -3.9 4 -3.9 3.4 0 4.2 0.4 5 2.6 1.3 3.3 11.6 14.2 15.4 16.1 1.6 0.8 6.8 2.1 11.5 2.9 24.3 3.9 38.6 -0.2 54.5 -15.8 4.9 -4.9 9.1 -8.8 9.4 -8.8 1.3 0 8.2 -8.5 8.2 -10.1 0 -2.2 -2.7 -3.2 -3.4 -1.3 -1 2.5 -7.8 1.4 -9.2 -1.4 -0.9 -1.8 -1.3 -2 -1.7 -0.8 -0.8 2.1 -10.1 8.8 -18.2 13.1 -3.8 2.1 -8.1 4.5 -9.5 5.4 -3.6 2.4 -10.5 5.7 -18.4 8.7 -6.3 2.4 -7.7 2.6 -16 2 -9.7 -0.6 -11.6 -1.7 -11.6 -6.3 0 -1.3 -0.4 -2.3 -0.9 -2.3 -1.4 0 -4.1 -6.5 -4.1 -9.9 0 -2.2 0.5 -3.1 1.8 -3.2 1.1 -0.1 0.8 -0.3 -0.8 -0.8 -2 -0.5 -2.6 -1.6 -3.2 -5 -1.3 -7.7 -2.5 -7 -4.1 2.3 l-1.1 6.6 -3.4 0 -3.5 0 0.5 -7.7 c0.6 -8.8 2.3 -13.3 5 -13.3 2.3 0 2.3 0.4 -0.7 -6.4 -2.9 -6.6 -9.9 -33.6 -11.5 -44.6 -0.6 -4.1 -1.6 -8.3 -2.1 -9.3 -0.5 -1 -1 -3.7 -1 -6 0 -2.3 -0.2 -12 -0.5 -21.4 -0.6 -17.1 -0.6 -17.3 1.5 -17.3 2.6 0 2.7 -1.9 0.7 -12.3 -1.8 -9.3 -3.5 -13.4 -7.5 -17.9 -2.6 -3 -3.1 -4.4 -3.1 -8.7 0 -3.6 0.4 -5.1 1.4 -5.1 1.3 0 2.6 -4.8 2.6 -9.8 0 -3.4 3 -9.2 4.6 -9.2 0.9 0 1.4 -1.3 1.5 -3.7 0.2 -11.2 1.6 -21.1 3.5 -23.6 1 -1.4 2.2 -2.7 2.6 -2.7 0.4 0 2.7 -1.3 5.1 -3 3.2 -2.1 5.7 -3 8.6 -3 3.9 0 4.1 0.1 4.1 3.1 0 1.8 -0.8 3.8 -1.7 4.6 -1.6 1.2 -1 1.4 5.2 0.9 15.9 -1.3 17.5 -1.6 17.5 -4.2 0 -1.8 0.6 -2.4 3.3 -2.7 l3.2 -0.4 -3.2 -0.1 c-3.1 -0.2 -3.3 -0.5 -3.3 -3.7 0 -3.4 0.1 -3.5 3.8 -3.5 2 0 6.1 0.3 9 0.6 4.6 0.6 5.2 0.9 5.2 3 0 1.7 0.6 2.4 2 2.4 1.2 0 2 -0.7 2 -1.6 0 -1.3 1.2 -1.5 8.3 -1.2 12.9 0.7 29.4 6.5 37.6 13.4 1.7 1.4 5.3 5.4 7.8 8.8 2.6 3.3 6.5 8.1 8.6 10.6 8.2 9.5 11.5 20.6 11.9 40.5 0.3 10.3 0 11.7 -3.5 22.6 -4.1 13.1 -4.4 15.1 -2.1 17 2.3 1.9 1.1 18 -2.5 34.5 -2.6 11.8 -3 12.7 -6.4 15.5 -2.1 1.7 -3.7 3.6 -3.7 4.4 0 2.2 -5.6 18.7 -9.7 28.5 -2.2 5.2 -3.8 10.1 -3.6 10.8 0.3 0.6 1.8 1.2 3.4 1.2 1.7 0 4 0.5 5.1 1.1 2.6 1.4 7.8 6.7 7.8 7.9 0 0.6 1.3 1 2.9 1 3 0 4.1 1.8 4.1 6.8 0 2.8 1.1 2.8 2.8 0.1 1.1 -1.7 2.1 -2 6.5 -1.7 l5.2 0.3 0.3 3.8 c0.3 3.1 0 3.7 -1.6 3.7 -2.3 0 -3.2 1.8 -3.3 6.3 -0.1 5.4 -3 9.2 -7.2 9.5 -2.1 0.2 -3.7 -0.1 -3.7 -0.7 0 -0.6 -0.9 -1.1 -1.9 -1.1 -1.5 0 -2.1 1 -2.6 4.2 -1.1 6 -4.3 8.8 -10.3 8.8 -5.5 0 -4.7 -1.2 -12.2 18.5 -3.8 9.8 -5.1 14.3 -6.6 22.3 -0.4 1.8 -1.1 2.2 -4 2.2 l-3.6 0 0.5 -4.7z m27.3 -50.1 c0.6 -0.4 1.3 -1.5 1.7 -2.4 0.4 -1.1 1.7 -1.8 3.2 -1.8 1.9 0 2.5 -0.5 2.5 -2.3 0 -1.3 0.5 -2.8 1.2 -3.5 0.6 -0.6 0.8 -1.5 0.4 -1.9 -0.4 -0.5 -1.6 0.2 -2.6 1.5 -1 1.2 -2.5 2.2 -3.4 2.2 -1 0 -1.6 0.9 -1.6 2.5 0 1.8 -0.5 2.5 -2 2.5 -1.1 0 -2 0.2 -2 0.4 0 0.2 -0.3 1.1 -0.6 2 -0.6 1.7 1.2 2.2 3.2 0.8z m-54.4 -30.8 c1 -2.2 1.7 -2.5 4.8 -2.2 4.1 0.4 4.3 0.3 10.7 -6.4 2.5 -2.7 5.4 -4.8 6.4 -4.8 2.1 0 7.8 -8.3 7.9 -11.2 0 -1 1.2 -2.6 2.7 -3.5 4.4 -2.8 6.3 -5.1 9.9 -11.6 10.4 -18.9 13.6 -28.7 13.2 -40.5 l-0.3 -7.7 -3.2 -0.3 c-3.2 -0.3 -3.3 -0.2 -3.3 3.5 0 5.2 -1.4 6.3 -8.2 6.3 -5.8 0 -5.8 0 -5.8 3 l0 3 -7 0 -7 0 0 -3 c0 -2.8 -0.3 -3 -3.5 -3 -2.1 0 -3.8 -0.6 -4.1 -1.4 -0.3 -0.8 -1.7 -1.7 -3.2 -2.1 -1.5 -0.4 -3.3 -1.1 -3.9 -1.7 -1.8 -1.4 -1.6 -8.9 0.2 -12.4 0.8 -1.6 1.5 -4 1.5 -5.4 0.1 -4.8 1.3 -5.5 10.7 -5.7 4.8 -0.1 13.8 0.3 19.8 0.8 8.8 0.9 11.4 1.5 13.3 3.2 l2.2 2 0 -2.4 c0 -1.4 -1.7 -5.8 -3.7 -9.8 -3.6 -7 -4.1 -7.4 -9.8 -9.8 -3.3 -1.3 -6.9 -2.7 -7.9 -3 -2.6 -0.8 -5.6 -3.9 -5.6 -5.8 0 -0.9 -0.9 -1.5 -2.5 -1.5 -2.6 0 -4.5 -2.5 -4.5 -5.9 0 -1.3 -0.9 -2.1 -3 -2.6 -1.6 -0.4 -3 -1.1 -3 -1.6 0 -0.5 -0.4 -0.9 -1 -0.9 -0.5 0 -1 1.4 -1 3 0 2.7 -0.3 3 -2.9 3 -5.5 0 -8.1 -1.6 -8.1 -5 0 -1.6 -0.4 -3 -1 -3 -0.5 0 -1 0.9 -1 2 0 1.6 -0.7 2 -3.5 2 -3.1 0 -3.5 -0.3 -3.5 -2.7 0 -3.6 -7.3 -10.3 -11.2 -10.3 -1.6 0 -3.9 -0.7 -5.2 -1.5 -1.8 -1.2 -3 -1.3 -5 -0.5 -1.5 0.5 -4.5 1 -6.6 1 -4.5 0 -5.6 1.4 -9.6 13.4 -1.8 5.1 -2.3 8.2 -1.8 11.5 0.3 2.8 -0.1 7.2 -1 11.1 -2.1 8.9 -2.1 9.3 0.6 7.9 3.5 -1.9 21.7 -0.5 26.7 2.1 2.2 1.1 5.7 2.4 7.7 2.8 2.1 0.4 4.2 1.6 4.8 2.7 0.6 1.1 1.9 3.2 2.9 4.7 2.1 3.1 2.3 15.3 0.3 20.8 -1.1 3.1 -1.7 3.5 -5.4 3.8 -3.5 0.3 -4.3 -0.1 -6.3 -2.7 -2.4 -3.3 -3.9 -3.9 -3.9 -1.7 0 2.7 -5.2 3.3 -12.6 1.5 -3.1 -0.8 -4.4 -1.7 -4.4 -2.9 0 -1.5 -0.7 -1.6 -5.1 -1.2 -4.1 0.4 -5.4 0.1 -6.1 -1.2 -0.5 -0.9 -1.5 -1.6 -2.2 -1.6 -0.7 0 -1.8 -1 -2.3 -2.2 -0.9 -2.1 -1.1 -1.8 -1.8 2.5 -1.7 11 1.1 23.1 9.5 40.4 5.5 11.4 7 13.1 7 8.1 0 -5.7 1.9 -7.2 9.7 -7.8 l6.8 -0.5 0.5 -4.5 0.5 -4.5 5.5 -0.3 c5.2 -0.3 5.6 -0.2 9.2 3.7 4 4.4 6.8 5.3 6.8 2.1 0 -2.9 3.3 -4.1 10.3 -3.8 l6.2 0.3 0.3 3.8 c0.2 2.1 -0.1 3.7 -0.7 3.7 -0.6 0 -1.1 0.4 -1.1 0.8 0 1 6 3.2 8.8 3.2 5.5 0 8.4 9.4 4.6 14.9 -1.5 2.1 -2.3 2.3 -6.8 1.8 -4.6 -0.5 -5.3 -0.3 -6.2 1.6 -0.6 1.6 -2.1 2.4 -5.4 2.8 -3.7 0.5 -3.9 0.6 -1.2 0.7 3 0.2 3.2 0.4 3.2 4.2 0 4.3 0.1 4.2 -8 5.4 -1.9 0.3 -5.2 0.9 -7.2 1.2 -2.1 0.4 -5.8 0.1 -8.3 -0.6 -4.9 -1.4 -6 -3.1 -5.3 -8.6 l0.3 -2.9 8.3 -0.3 c7.4 -0.3 8.2 -0.5 8.2 -2.2 0 -1.4 -0.7 -2 -2.4 -2 -1.3 0 -3.7 -0.3 -5.4 -0.6 -2.5 -0.5 -3.1 -0.2 -3.7 1.5 -1 3.2 -8.2 3 -11.1 -0.4 -1.3 -1.5 -5 -3.4 -9.2 -4.8 l-7 -2.3 0.5 3.6 c0.9 5.7 3 9 5.8 9 2 0 2.9 0.8 4.1 4.1 1.9 4.5 4.2 5.9 11.9 6.8 4.2 0.5 5 1 5.5 3.1 0.3 1.4 1.8 3.1 3.5 3.9 1.7 0.8 3.2 1.8 3.3 2.3 0.7 1.7 3.3 0.7 4.4 -1.8z m-57.2 -165.3 c0 -1.4 -2.9 -7.7 -3 -6.5 0 0.6 -0.3 2.6 -0.6 4.3 -0.6 2.7 -0.4 3.1 1.5 3.1 1.1 0 2.1 -0.4 2.1 -0.9z"/>
  <path d="M115.3 110.3 c-0.9 -0.3 -1.3 -2.6 -1.3 -6.4 l0 -5.9 3.3 0 c4.6 0 5.7 1.5 5.7 7.7 l0 5.3 -3.2 -0.1 c-1.8 0 -3.9 -0.3 -4.5 -0.6z"/>
  <path d="M323 312.5 c0 -1.6 0.6 -2.5 1.5 -2.5 0.9 0 1.5 0.9 1.5 2.5 0 1.6 -0.6 2.5 -1.5 2.5 -0.9 0 -1.5 -0.9 -1.5 -2.5z"/>
  <path d="M214 290.1 c0 -5 1.2 -9.3 2.9 -9.9 0.9 -0.3 2 -1.1 2.4 -1.9 0.4 -0.7 2.4 -1.3 4.2 -1.3 3.3 0 3.5 0.2 3.5 3.3 0 2 -1.2 5.2 -3 8 -2.6 4.1 -3.4 4.7 -6.5 4.7 -3.2 0 -3.5 -0.3 -3.5 -2.9z"/>
  <path d="M303 288.6 c0 -7 6.8 -11.6 17.1 -11.6 l5.9 0 0 7 c0 5.6 -0.3 7 -1.5 7 -0.8 0 -1.5 -0.5 -1.5 -1.1 0 -1.1 -2.4 -3.9 -3.4 -3.9 -0.3 0 -2.8 1.4 -5.6 3 -2.8 1.7 -6.4 3 -8 3 -2.7 0 -3 -0.3 -3 -3.4z"/>
  <path d="M56 284.9 c0.1 -4.5 3.9 -8.9 7.8 -8.9 2.3 0 3.3 -0.8 5 -3.9 2.7 -4.8 2.7 -5.1 0.2 -5.1 -1.6 0 -2 -0.7 -2 -3.3 0 -2.8 1.3 -4.7 7.5 -11.4 l7.4 -8 -6 -0.6 c-3.2 -0.3 -8.1 -1.2 -10.7 -2 -2.6 -0.9 -6.6 -2.1 -8.9 -2.7 -4 -1 -4.3 -1.3 -4.3 -4.5 0 -3.1 0.3 -3.5 2.8 -3.5 1.5 0 7.4 1.2 13.1 2.6 8.2 2 11.7 2.4 16.2 1.9 3.2 -0.4 7.6 -0.4 9.9 0 l4 0.7 0 4.8 c0 3 -0.5 5.2 -1.5 6 -0.9 0.8 -1.5 2.9 -1.5 5.5 0 3.9 -0.6 4.9 -6.2 10.8 -7.6 7.8 -10.8 12 -10.8 14.1 0 0.9 -0.4 1.6 -1 1.6 -0.5 0 -1 0.6 -1 1.3 0 2.3 -4.4 5.5 -8.5 6.1 -12.5 2.1 -11.5 2.2 -11.5 -1.5z"/>
  <path d="M236 278.8 c0.1 -2.9 0.8 -7.1 1.6 -9.3 0.9 -2.2 1.5 -6.2 1.4 -8.8 -0.1 -2.9 0.5 -5.8 1.4 -7.2 2.3 -3.6 11.9 -8.5 16.6 -8.5 l4 0 0 4.3 c0 4 -0.3 4.6 -3.5 6.3 -1.9 1 -3.5 2.4 -3.5 3.1 0 0.6 -1.2 2.1 -2.6 3.2 -1.6 1.2 -3 3.7 -3.5 5.8 -0.4 2.1 -1.8 6.6 -3 10.1 -2.1 5.9 -2.3 6.2 -5.5 6.2 l-3.4 0 0 -5.2z"/>
  <path d="M92.2 275.3 c0.3 -3.6 0.5 -3.8 4.1 -4.1 l3.8 -0.3 -0.3 3.8 c-0.3 3.6 -0.5 3.8 -4.1 4.1 l-3.8 0.3 0.3 -3.8z"/>
  <path d="M265.2 265.3 c0.3 -3.7 0.4 -3.8 4.6 -4.1 l4.3 -0.3 -0.3 3.8 c-0.3 3.7 -0.4 3.8 -4.6 4.1 l-4.3 0.3 0.3 -3.8z"/>
  <path d="M57 257 c0 -2.7 0.5 -4.3 1.5 -4.6 0.8 -0.4 1.5 -1.2 1.5 -2 0 -1 1.2 -1.4 4 -1.4 3.9 0 4 0.1 4 3.5 0 2.4 -0.5 3.5 -1.4 3.5 -0.8 0 -1.6 1 -1.8 2.3 -0.2 1.8 -1 2.3 -4 2.5 l-3.8 0.3 0 -4.1z"/>
  <path d="M47 256.5 c0 -3.3 0.2 -3.5 3.5 -3.5 3.3 0 3.5 0.2 3.5 3.5 0 3.3 -0.2 3.5 -3.5 3.5 -3.3 0 -3.5 -0.2 -3.5 -3.5z"/>
  <path d="M0 253.5 c0 -2.8 0.4 -3.5 2 -3.5 1.6 0 2 0.7 2 3.5 0 2.8 -0.4 3.5 -2 3.5 -1.6 0 -2 -0.7 -2 -3.5z"/>
  <path d="M0 241.5 c0 -3.5 0 -3.5 4.5 -3.5 4.5 0 4.5 0 4.5 3.5 0 3.5 0 3.5 -4.5 3.5 -4.5 0 -4.5 0 -4.5 -3.5z"/>
  <path d="M24.3 238.3 c-1.9 -0.4 -2.3 -1.1 -2.3 -3.9 0 -3.2 0.2 -3.4 3.4 -3.4 1.8 0 4.8 0.3 6.5 0.6 2.7 0.6 3.1 1 3.1 4 0 3.4 -0.1 3.4 -4.2 3.3 -2.4 -0.1 -5.3 -0.4 -6.5 -0.6z"/>
  <path d="M126 19 c0 -1.6 -0.4 -3 -1 -3 -0.5 0 -1 -1.6 -1 -3.6 l0 -3.6 6.5 0.4 c3.5 0.2 6.7 0.7 7.1 1 0.3 0.4 0.3 3.2 -0.1 6.3 l-0.6 5.5 -5.5 0 c-5.3 0 -5.4 0 -5.4 -3z"/>
 </g>
 <g fill="#ae9c89">
  <path d="M1 330.1 c-0.6 -1.3 -1 -55.7 -1 -166 l0 -164.1 163 0 163 0 0 166 -0.1 166 -16 0 c-14.5 0 -15.9 -0.2 -15.9 -1.7 -0.1 -1.7 -0.1 -1.7 -1.1 -0.1 -0.8 1.5 -2.4 1.7 -9.5 1.7 l-8.5 -0.2 3.8 -2.5 c4.9 -3.2 4.7 -3.1 4.1 -3.8 -0.8 -0.7 -4.5 1.2 -8.1 4.2 -2.5 2.1 -6.7 3.3 -6.7 1.9 0 -1.9 5.8 -11.3 10.2 -16.7 5.6 -6.6 15.9 -21.5 11.4 -16.3 -8.6 9.8 -10.8 12.5 -13.6 16.3 -1.7 2.4 -3.4 4 -3.9 3.8 -1.3 -0.8 0.7 -9.9 3.9 -18.5 3.7 -9.6 7.3 -16.9 12.7 -25.1 2.4 -3.6 4.3 -6.9 4.4 -7.5 0.3 -1.8 4.3 -4 7.4 -4 3.8 0 4.3 -1.8 0.8 -2.7 -4.3 -1.2 -12.3 3 -12.3 6.5 0 0.8 -1.4 4.1 -3 7.3 -10.2 19.8 -20 47.2 -20 55.8 0 1.5 -11.4 1.6 -132 1.6 -129.1 0 -132 0 -133 -1.9z m308.5 -16.4 c1.6 -1.5 -4.8 2 -7 3.8 -1.1 0.9 -0.2 0.7 2 -0.6 2.2 -1.2 4.5 -2.6 5 -3.2z m-117.5 -5.7 c0 -1.3 -0.1 -1.3 -1 0 -0.5 0.8 -1 2.2 -1 3 0 1.3 0.1 1.3 1 0 0.5 -0.8 1 -2.2 1 -3z m77.8 -3 c0 -2.2 -0.1 -2.2 -0.8 0.5 -0.4 1.7 -0.8 3.9 -0.8 5 0 1.6 0.2 1.5 0.8 -0.5 0.4 -1.4 0.8 -3.6 0.8 -5z m-71.4 -18.5 c2 -5.5 4.1 -10.8 4.6 -11.7 1.3 -2.4 1.3 -2.8 -0.3 -2.2 -2.1 0.8 -4.9 6.3 -7 13.8 -4.4 16 -3.1 16 2.7 0.1z m80.4 -8.1 c3.3 -5.2 5.2 -11.4 3.5 -11.4 -1.7 0 -7.3 8.4 -8.4 12.5 -0.5 2.2 -1.7 5.7 -2.5 7.8 -0.7 2 -1.4 5.4 -1.4 7.5 0.1 3.4 0.3 3.1 2.9 -3.8 1.5 -4.1 4.2 -9.8 5.9 -12.6z m-96.6 11.6 c0.2 -0.5 0.1 -3.2 0 -6 -0.4 -4.5 -0.7 -5.1 -3 -5.6 -4.4 -1.1 -4.6 -1.6 -1.1 -3.1 2.7 -1.1 3.5 -1.2 4.4 -0.1 1.7 2.2 8.1 1 10.7 -2 5.1 -5.9 8.7 -8.2 12.1 -7.5 1.8 0.3 3.6 1.2 4 2 1.1 1.8 5.1 1.6 7.6 -0.4 2.1 -1.8 4.9 -8.9 3 -7.8 -0.5 0.4 -0.9 1.3 -0.9 2 0 1.3 -1.2 1.8 -7.1 2.9 -0.9 0.2 -2.3 0 -3 -0.5 -0.8 -0.4 -1.9 -0.3 -2.6 0.3 -2.3 1.9 -2.7 -0.1 -0.5 -2.2 1.2 -1.2 2.2 -2.8 2.2 -3.8 0 -0.9 2 -4.8 4.5 -8.7 5.5 -8.5 7.2 -13.8 5.5 -17.4 l-1.2 -2.6 -1 2.5 c-0.6 1.6 -0.6 2.6 0.1 2.8 2.2 0.7 0.9 3.5 -3.9 8.2 -2.7 2.8 -5.1 5 -5.3 5 -0.2 0 -4.4 3.9 -9.3 8.8 -13.2 12.9 -23.6 17.2 -42 17.2 -11.3 0 -25.7 -2.1 -30 -4.3 -3.8 -1.9 -14.1 -12.8 -15.4 -16.1 -0.5 -1.4 -1.4 -2.6 -2 -2.6 -1.4 0 -1.3 0.5 1 4.7 1 2 1.7 4 1.4 4.5 -0.3 0.4 0.5 2.2 1.6 3.9 3.6 5 1.3 4.6 -3.7 -0.7 l-4.8 -4.9 2.4 4 c1.4 2.2 3.1 4.9 3.8 6 0.7 1.1 1.3 3.3 1.3 5 0 2.1 0.3 2.6 0.9 1.6 1.2 -1.8 7.5 -0.7 11.3 2 1.5 1.1 4.4 2.7 6.5 3.5 4.4 1.9 18.5 3.5 18 2.1 -0.2 -0.6 -2 -1.2 -4.2 -1.4 -2.1 -0.2 -4.6 -0.8 -5.4 -1.4 -1.1 -0.6 0.5 -0.7 4.9 -0.4 9.3 0.9 11.7 1.4 10 2.5 -0.9 0.6 0.1 1.1 3.1 1.7 l4.4 0.9 -3.2 1.7 c-3.3 1.7 -3.9 2.7 -2.6 4 1.1 1.1 27.1 0.8 27.5 -0.3z m-32.2 -1.4 c0 -0.8 -0.8 -1.4 -1.9 -1.3 -1.1 0 -1.7 0.6 -1.4 1.4 0.7 1.8 3.3 1.7 3.3 -0.1z m71.9 -4.8 c1.2 -2.4 1.7 -3.6 0.9 -2.7 -0.7 0.8 -2.1 1.8 -3 2.2 -1 0.3 -1.8 1.3 -1.8 2.1 0 0.8 -0.3 2.3 -0.7 3.3 -1.2 3.3 2.1 -0.2 4.6 -4.9z m91.4 0.8 c5 -2.8 5.7 -5.4 0.9 -3.4 -3.4 1.5 -6.1 3.7 -7.5 6.3 -0.8 1.7 -0.8 1.8 0.4 0.9 0.8 -0.6 3.5 -2.3 6.2 -3.8z m-177.3 0.8 c0 -2 -1.8 -1.7 -2.9 0.5 -0.9 1.6 -0.8 1.8 0.9 1.4 1.1 -0.3 2 -1.2 2 -1.9z m-72.9 -3.6 c1.6 -3 0.7 -2.9 -1.9 0.3 -1.7 2.1 -1.9 2.7 -0.7 2.3 0.8 -0.4 2 -1.5 2.6 -2.6z m260.7 0.3 c-0.7 -1.2 -1.6 -2.1 -2.1 -2.1 -0.4 0 0 1.1 1 2.4 2.2 2.9 3 2.7 1.1 -0.3z m-253.2 -1.2 c1 -1.1 1.9 -2.6 2 -3.2 0.4 -4.3 0.4 -4.3 1.5 -2.7 0.9 1.3 1 1.2 0.5 -0.2 -0.6 -1.9 0.4 -3.2 10.9 -14.2 3.6 -3.7 6.5 -7.3 6.5 -7.9 0 -0.6 -0.9 -0.1 -2 1.1 -1.2 1.2 -2.4 2.2 -2.8 2.2 -2.1 0.1 -11.4 10.3 -13.2 14.6 -1.2 2.7 -3.2 6.3 -4.6 8.1 -1.3 1.7 -2.4 3.4 -2.4 3.7 0 1.3 1.8 0.5 3.6 -1.5z m171.2 -5.9 c1 -3 2.2 -6.3 2.7 -7.2 1.4 -3.4 -1.1 -1.8 -2.8 1.7 -1.6 3.4 -3.5 12.5 -2.4 11.5 0.3 -0.3 1.4 -3 2.5 -6z m-157.7 -22.5 c7.2 -6.4 10.9 -10.4 10.9 -11.8 0 -2 -0.1 -2 -2.7 0.3 -10.5 9.2 -24.9 24.6 -20.9 22.3 1 -0.6 6.8 -5.4 12.7 -10.8z m166.9 3.3 c0 -0.5 -0.6 -0.6 -1.2 -0.2 -0.9 0.5 -0.8 0.2 0.1 -0.9 0.8 -1 1.6 -1.5 1.9 -1.3 0.8 0.9 6.2 -2.7 6.2 -4.1 0 -2 -1.5 -1.6 -7.5 1.8 -7.6 4.3 -10.9 9.3 -6.7 10.1 1.7 0.3 7.2 -3.8 7.2 -5.4z m-102.1 -0.3 c8.4 -3.2 14.2 -6.1 20.8 -10.2 2.9 -1.8 5.5 -3.3 5.9 -3.3 1.9 0 13.5 -8.1 17.7 -12.3 5.1 -5.2 7.1 -5.5 8.7 -1.3 1.1 3.1 2.9 4.1 3.6 2.2 0.3 -0.9 -0.3 -3.1 -1.5 -4.9 -2.9 -4.8 -2.7 -7.1 2 -18.3 4.3 -10.1 9.9 -26.6 9.9 -28.9 0 -0.8 1.6 -2.7 3.6 -4.3 3.3 -2.8 3.9 -4 6 -13.4 1.3 -5.7 2.8 -14.5 3.4 -19.7 1 -9 0.9 -9.6 -1.1 -11.7 -2.6 -2.8 -2.2 -6.1 2.8 -22.4 3 -9.6 3.6 -12.8 3.4 -19.6 -0.3 -16.9 -4 -28.4 -11.8 -37.4 -2.1 -2.5 -6 -7.3 -8.6 -10.6 -2.5 -3.4 -6.1 -7.4 -7.8 -8.8 -7.4 -6.2 -24.4 -12.6 -34.9 -13.2 l-5.5 -0.3 4.6 0.9 c5.6 1 9.2 2.7 8.4 4.1 -0.4 0.5 0.4 0.9 1.7 0.9 1.3 0 3.9 1 5.8 2.2 2.8 1.7 3.1 2.3 1.7 2.6 -1 0.2 -3.6 -0.3 -5.8 -1.2 -2.2 -0.9 -5 -1.6 -6.3 -1.6 -1.3 0 -4.8 -1.1 -7.8 -2.5 -3.8 -1.8 -7 -2.5 -11.5 -2.5 -3.6 0 -6.3 0.4 -6.3 1 0 0.6 -1.5 1 -3.2 1.1 -5.7 0.1 -0.1 1.7 6.7 1.9 5.8 0.2 5.9 0.2 2.5 1.2 -1.9 0.6 -4.2 1.3 -5 1.6 -0.8 0.3 -4.6 0.7 -8.5 0.7 -7.9 0.2 -22.7 1.4 -26.4 2.1 -1.4 0.3 -4 2.1 -5.8 4 -3.5 3.7 -4.3 2.8 -1.8 -2 0.8 -1.5 1.3 -3.1 1.1 -3.5 -0.6 -1 0.3 -2.2 4.2 -5.4 1.9 -1.5 2.9 -2.7 2.2 -2.7 -1.3 0 -5.7 2.7 -8.7 5.4 -1.3 1.1 -2.3 1.6 -2.3 1.1 0 -0.4 -1 0.5 -2.2 2 -2.5 3.2 -3.7 13.2 -2.1 16.8 0.5 1.2 2.3 6.2 3.9 11 1.6 4.9 3.4 9.3 4.1 9.9 2.8 2.3 1.2 3 -4.8 2.3 -4.4 -0.5 -6 -0.4 -5.5 0.4 0.4 0.6 1.6 1.1 2.7 1.1 2.6 0 2 2.2 -1.1 3.7 l-2.5 1.2 3 0.1 3 0.1 -4 2 c-3.7 1.8 -4.1 1.9 -5.2 0.2 -0.7 -0.9 -1.3 -1.3 -1.3 -0.8 0 0.5 0.7 1.6 1.6 2.6 1 1.1 1.2 1.9 0.5 2.4 -0.6 0.3 -2.1 -1.1 -3.3 -3.2 -2.1 -3.4 -2.3 -3.6 -2.6 -1.5 -0.2 1.4 0.9 3.7 3.2 6.3 4.4 5.2 6.1 10.3 8.2 24.4 1.8 11.8 1.4 16.6 -1 13.3 -0.7 -1 -1.6 -1.8 -1.9 -1.8 -1 0 0.5 36 1.6 39 0.3 0.8 1 4.9 1.6 9 2.2 14.5 9 38.6 14.1 50.3 2.7 6.4 5 12.7 5 14 0 3.1 1 4 2.7 2.5 0.9 -0.7 1.7 -0.8 2.3 -0.2 1.3 1.3 0 8.2 -1.6 8.6 -1.1 0.2 -1 0.9 0.3 3.5 0.8 1.8 1.9 3 2.4 2.7 0.5 -0.3 0.9 0.4 0.9 1.5 0 3 0.1 3.4 1.1 5.4 1.7 3 2.6 1.9 2.6 -3.2 0.1 -2.7 0.5 -5.7 1 -6.5 0.8 -1.5 1.3 -1.4 4.4 1.1 3 2.5 3.5 3.5 3 6.6 0 0.4 0 0.9 0.2 1.2 0.1 0.2 -0.7 1.1 -1.8 1.9 -1.9 1.5 -1.8 1.5 1.4 1.6 1.9 0 6.4 -1.1 10 -2.5z m85.5 -1.5 c1.2 -2.6 1.2 -3.2 0.1 -4.4 -0.8 -0.7 -1.2 -1.6 -0.9 -1.9 0.3 -0.3 0.2 -1.3 -0.3 -2.1 -0.7 -1.3 -1.6 -0.5 -4.6 3.9 -2 3 -3.7 5.8 -3.7 6.1 0 0.4 1.4 0.4 3 0.2 2.1 -0.3 3 0 3 0.9 0 2.1 1.7 0.7 3.4 -2.7z m-15.3 -9.5 c0.8 -1.6 0.6 -1.5 -1 0.4 -1.2 1.3 -2.1 2.8 -2.1 3.5 0 1.2 1.4 -0.5 3.1 -3.9z m17.4 -0.4 c0.3 -1.1 1.6 -2.1 2.8 -2.4 2.1 -0.3 2.1 -0.4 0.3 -1.2 -2.4 -1.1 -5 0.5 -5.4 3.4 -0.4 2.6 1.4 2.8 2.3 0.2z m-12 -1.1 c1.5 -1.6 1.6 -2.5 0.7 -5.2 -0.8 -2.7 -1 -2.9 -1.1 -1 -0.1 1.3 -0.8 3.6 -1.6 5.2 -1.8 3.4 -0.7 4 2 1z m-149.5 -4.1 c-8.3 -2 -9.6 -2.2 -8.7 -1.2 1.1 1 10 3.2 13.2 3.1 1.8 0 0 -0.7 -4.5 -1.9z m35.5 -12.7 c-0.7 -0.7 -2.5 7.3 -2.4 10.3 0.1 1.8 0.6 0.4 1.4 -3.5 0.7 -3.6 1.1 -6.7 1 -6.8z m-50.5 9.2 c-5.6 -1.7 -6.4 -1.7 -2.5 0.1 1.7 0.8 3.9 1.4 5 1.4 1.1 0 0 -0.7 -2.5 -1.5z m154.4 -6.8 c-0.6 -1.6 -5.4 -3.9 -6.3 -3 -0.3 0.4 -0.1 0.9 0.5 1.1 0.6 0.2 2 1 3 1.8 2.4 1.8 3.5 1.9 2.8 0.1z m-114.9 -156.7 c0.5 -0.6 0.2 -0.9 -0.8 -0.9 -0.9 0 -1.9 0.1 -2 0.3 -0.2 0.1 -1.1 -0.4 -2 -1.1 -1.8 -1.5 -3 -0.2 -2.1 2.2 0.6 1.6 4.8 1.3 6.9 -0.5z m-4.1 -8.8 c0.3 -2.2 0.9 -4.8 1.2 -5.8 0.5 -1.3 0.2 -1.2 -1 0.5 -2 2.6 -3.3 9.2 -1.9 9.2 0.6 0 1.3 -1.8 1.7 -3.9z m38.6 -45.1 c0 -1.2 -0.8 -1.2 -3.5 0 -1.8 0.8 -1.7 0.9 0.8 0.9 1.5 0.1 2.7 -0.3 2.7 -0.9z m-0.5 -5 c-1.1 -0.5 -3.1 -0.8 -4.5 -0.8 -2.3 0 -2.2 0.1 0.5 0.8 4.2 1.1 6.5 1.1 4 0z"/>
  <path d="M147.3 277.3 c-2.6 -1 -1.2 -2.4 2 -2.1 1.7 0.2 3.2 0.7 3.2 1.2 0 1 -3.4 1.6 -5.2 0.9z"/>
  <path d="M203.6 256.2 c-0.6 -1.1 0.9 -2.5 3.6 -3.5 1.4 -0.5 1.6 -0.2 0.9 1.6 -0.9 2.3 -3.5 3.4 -4.5 1.9z"/>
  <path d="M209 250.5 c0 -1.8 1.9 -4 2.6 -3.2 0.4 0.4 0 1.5 -0.9 2.4 -0.9 1 -1.7 1.3 -1.7 0.8z"/>
  <path d="M153.8 234.7 c-0.7 -0.8 -2.6 -2 -4.3 -2.8 -1.6 -0.8 -3.2 -2.5 -3.5 -3.9 -0.5 -2.1 -1.1 -2.5 -4 -2.2 -5.4 0.4 -11.5 -3.2 -13.4 -7.9 -1.4 -3.5 -2 -4 -4 -3.5 -1.9 0.5 -2.6 0 -3.9 -3.2 -0.9 -2 -1.9 -5.6 -2.2 -7.9 -0.4 -2.4 -1.1 -4.6 -1.6 -4.9 -1.5 -0.9 -10.5 -20.1 -13 -27.4 -1.3 -4.2 -2.3 -10.1 -2.6 -16.5 -0.4 -8.9 0 -12.2 3.7 -30.5 2.7 -13.2 4.2 -22.8 4.1 -26.9 -0.2 -8.8 4.3 -22.5 9.1 -27.8 1.9 -2 2.3 -2.1 4.2 -0.7 2 1.2 2.8 1.2 6.9 -0.2 4.5 -1.5 4.9 -1.5 8.3 0.5 1.9 1.2 4.7 2.1 6.2 2.1 1.8 0 4.3 1.4 7.2 4 4.8 4.3 7.7 5.6 11.2 4.7 2.2 -0.6 13.9 2 14.8 3.3 1 1.4 4.8 2.1 5.5 1 0.8 -1.3 6.5 3.6 6.5 5.6 0 0.7 0.8 1.8 1.8 2.4 1.2 0.8 1.3 1.3 0.5 1.6 -0.7 0.3 -1.3 1.2 -1.3 1.9 0 1.7 2.7 2.7 3.4 1.2 0.3 -0.7 0.3 -0.2 0.1 0.9 -0.4 1.6 0 2.3 1.7 2.7 1.3 0.3 5 1.6 8.3 3 5.8 2.4 6.2 2.8 9.7 9.8 3.4 6.6 3.9 8.7 4.8 18.9 2.1 24.5 1.1 33.2 -5.5 47.1 -7.8 16.6 -11.1 21.5 -16.8 25.2 -1.5 0.9 -2.7 2.5 -2.7 3.5 -0.1 2.9 -5.8 11.2 -7.9 11.2 -1 0 -3.9 2.1 -6.4 4.8 -7.1 7.3 -8.2 8.2 -10.3 8.2 -1.1 0 -2.5 -0.5 -3.2 -1.2 -0.9 -0.9 -1.2 -0.9 -1.2 0 0 3.9 -7.4 6.7 -10.2 3.9z m7.2 -17.3 c6.4 -1 8 -1.4 8 -2.3 0 -1.7 -20.6 -3.9 -22.1 -2.4 -2.5 2.5 3.9 6.8 8.6 5.7 1.1 -0.3 3.6 -0.7 5.5 -1z m11 -11.9 c0.9 -1.1 0.9 -1.9 0.2 -2.8 -0.9 -1 0.1 -1.1 5.1 -0.6 5.4 0.6 6.4 0.4 8 -1.3 0.9 -1.1 1.7 -2.6 1.7 -3.4 0 -2.2 -3.8 -5.4 -6.5 -5.4 -1.3 0 -5 -1.1 -8.1 -2.5 -3.1 -1.4 -7.1 -2.5 -8.8 -2.5 -6.5 -0.1 -10.8 -1.8 -13.8 -5.5 -2.3 -2.8 -3.7 -3.5 -5.7 -3.3 -2.2 0.3 -2.5 0.7 -2.3 3 0.4 3.5 -1.4 6.8 -3.8 6.8 -1 0 -2.2 0.4 -2.5 1 -0.4 0.6 -1.2 0.6 -2.4 -0.2 -3.8 -2.3 -10.2 1.9 -8.7 5.7 0.3 0.8 3.6 2.3 7.3 3.4 4.6 1.4 7.4 2.9 8.7 4.6 1 1.4 2.4 2.5 3.1 2.5 1.9 0 2.8 -3.2 1.3 -4.2 -0.8 -0.6 0.6 -0.7 3.7 -0.4 2.8 0.4 7.8 0.9 11.3 1.3 6 0.6 7.8 1.7 4.7 2.9 -2.8 1.1 -1.5 2.4 2.4 2.4 2.2 0 4.4 -0.6 5.1 -1.5z m0.4 -23.1 c0.9 -0.3 1.3 -1 1 -1.5 -0.8 -1.4 -6.8 -1 -9 0.6 -1.8 1.3 -1.6 1.4 2.3 1.5 2.3 0 4.8 -0.3 5.7 -0.6z m17.9 -29.1 c-1.3 -0.2 -3.3 -0.2 -4.5 0 -1.3 0.2 -0.3 0.4 2.2 0.4 2.5 0 3.5 -0.2 2.3 -0.4z m-39.1 -5 c1.9 -4.6 1.9 -13.4 0 -16.3 -1 -1.4 -2.2 -3.4 -2.8 -4.5 -0.6 -1.1 -2.7 -2.3 -4.8 -2.7 -2 -0.4 -5.4 -1.7 -7.5 -2.8 -2.3 -1.1 -7.1 -2.2 -11.8 -2.6 -7.5 -0.6 -8 -0.5 -11 2 -2.4 2 -3.2 3.5 -3.4 7 -0.4 4.5 1.4 5.5 2.4 1.4 0.5 -1.9 1.1 -2 6.8 -1.5 7.4 0.6 10.5 2.7 4.1 2.7 -2.4 0 -5.8 0.7 -7.7 1.4 -1.9 0.8 -3.5 1.3 -3.5 1.1 0 -0.3 -0.9 0.3 -1.9 1.2 -1.6 1.3 -1.7 2 -0.9 3.9 0.6 1.3 1.7 2.4 2.4 2.4 0.7 0 1.7 0.8 2.2 1.7 0.9 1.4 1.4 1.5 4.1 0.3 2.5 -1 2.9 -1.5 2 -2.7 -1 -1.1 -0.9 -1.8 0.4 -3 1.5 -1.5 1.7 -1.5 2.3 0.3 1.4 4.4 2.9 6.5 5.1 7 2.6 0.7 5.8 -1.6 6.9 -4.8 0.4 -1.5 0.9 -1.7 2 -0.7 0.8 0.6 1.4 2 1.4 3 0 1.3 0.7 1.9 2.1 1.9 1.1 0 3.5 1.6 5.2 3.5 3.7 4.2 4.4 4.3 5.9 0.8z m40.8 -0.3 c1.1 -1.1 2 -2.7 2 -3.5 0 -2.3 1.8 -1.8 3.6 1 1.8 2.8 5.5 3.3 7.4 1 2.5 -3.1 -1.8 -7.6 -7.3 -7.5 -2.1 0.1 -2.1 0.1 0.3 1.6 2.5 1.5 2.5 1.5 -1 0.8 -4.4 -0.8 -4.6 -1 -5.3 -3.3 -0.9 -3.5 1.7 -4.6 7.6 -3.3 13.5 3.2 12.7 3.2 12.7 0.6 0 -1.2 -1.1 -3.6 -2.5 -5.2 -2.3 -2.7 -3.3 -3.1 -10.3 -3.8 -4.2 -0.4 -11.9 -0.7 -17.1 -0.7 -9.9 0.1 -11.1 0.6 -11.1 5.1 0 1.3 -0.8 4 -1.7 5.9 -1.9 4.2 -1.1 6.2 3.3 7.6 1.6 0.6 3.3 1.6 3.7 2.3 1.3 2.2 2.4 1.6 3.1 -1.6 0.7 -3.7 2.2 -3.9 3.1 -0.3 0.4 1.6 1.1 3.4 1.7 4 1.6 1.9 5.5 1.6 7.8 -0.7z m-57.2 0.1 c1.5 -0.9 -3.2 -2.2 -7.7 -2 -2.2 0.1 -2 0.3 1.4 1.4 5 1.7 4.7 1.6 6.3 0.6z m-15.2 -42.6 c-0.2 -1.4 -0.8 -3.1 -1.4 -3.7 -0.9 -0.9 -1.2 -0.4 -1.2 1.9 0 1.7 0.6 3.4 1.3 3.6 0.6 0.3 1.3 0.6 1.4 0.6 0.1 0.1 0 -1 -0.1 -2.4z m67.9 -13.5 c-0.3 -0.5 -1.5 -1.5 -2.6 -2.1 -1.9 -1 -2 -0.9 -0.9 1 0.6 1.2 1.8 2.1 2.6 2.1 0.8 0 1.2 -0.4 0.9 -1z m-18.5 -4.9 c0 -0.9 -4.1 -2.3 -4.9 -1.6 -0.3 0.4 2.8 2 4.7 2.4 0.1 0.1 0.2 -0.3 0.2 -0.8z"/>
  <path d="M158.1 199.1 c-0.9 -0.6 -0.7 -1 0.8 -1.4 1.2 -0.3 2.1 -0.1 2.1 0.3 0 1.4 -1.5 1.9 -2.9 1.1z"/>
  <path d="M153 195 c-1.4 -0.4 -4.7 -0.9 -7.5 -1 -4.1 -0.2 -4.5 -0.3 -2.5 -1 5.7 -1.8 23.8 -0.1 22.4 2.2 -0.6 1 -9 0.9 -12.4 -0.2z"/>
  <path d="M220.4 166.5 c0.3 -2.2 0.8 -6.3 1.2 -9.2 0.4 -3 1.2 -5.4 2 -5.7 1.5 -0.6 2 2.9 0.5 3.8 -0.4 0.3 -1.1 3.2 -1.5 6.3 -0.4 3.2 -1.1 6.5 -1.7 7.3 -0.8 1.1 -0.9 0.5 -0.5 -2.5z"/>
  <path d="M223 144.6 c0 -1.4 0.5 -3.7 1 -5.2 0.8 -2 1.4 -2.4 2.2 -1.6 0.8 0.8 0.8 2.2 -0.1 5.2 -1.3 4.4 -3.1 5.3 -3.1 1.6z"/>
  <path d="M170 40.5 c-1.6 -0.9 -1.9 -1.4 -0.9 -1.5 0.8 0 2.4 0.7 3.5 1.5 2.4 1.8 0.7 1.9 -2.6 0z"/>
  <path d="M135.3 32.6 c1.8 -1.4 1.8 -1.4 0 -1.9 -1 -0.3 0 -0.5 2.2 -0.6 3.7 -0.1 7.6 1.2 6.5 2.2 -0.3 0.2 -2.7 0.7 -5.5 1 -4.4 0.6 -4.8 0.5 -3.2 -0.7z"/>
  <path d="M150 29 c0 -0.5 1.2 -1 2.8 -1 2.1 0 2.4 0.2 1.2 1 -2 1.3 -4 1.3 -4 0z"/>
  <path d="M163.6 27.5 c-3.1 -2.8 -3.2 -3.5 -0.8 -3.4 2.1 0 7.1 5.9 4.9 5.9 -0.8 0 -2.6 -1.1 -4.1 -2.5z"/>
 </g>
</svg>